<svg width="2020" height="321" viewBox="0 0 2020 321" fill="none" xmlns="http://www.w3.org/2000/svg">
<g clip-path="url(#clip0_399_2078)">
<mask id="mask0_399_2078" style="mask-type:luminance" maskUnits="userSpaceOnUse" x="0" y="0" width="2020" height="321">
<path d="M2020 0H0V321H2020V0Z" fill="white"/>
</mask>
<g mask="url(#mask0_399_2078)">
<path d="M2020 0H0V321H2020V0Z" fill="#FFD43C"/>
<mask id="mask1_399_2078" style="mask-type:luminance" maskUnits="userSpaceOnUse" x="1408" y="-35" width="390" height="390">
<path d="M1715.16 -34.725L1408 47.5781L1490.3 354.738L1797.46 272.435L1715.16 -34.725Z" fill="white"/>
</mask>
<g mask="url(#mask1_399_2078)">
<path d="M1561.58 6.42188L1509.16 188.092L1618.42 218.542L1697.81 137.544L1561.58 6.42188ZM1643.88 313.582L1513.95 205.971L1623.31 236.792L1702.6 155.423L1643.88 313.582Z" fill="#222222" fill-opacity="0.44"/>
</g>
<mask id="mask2_399_2078" style="mask-type:luminance" maskUnits="userSpaceOnUse" x="-758" y="-907" width="1813" height="1814">
<path d="M671.696 -906.008L-758 -522.922L-374.914 906.774L1054.78 523.688L671.696 -906.008Z" fill="white"/>
</mask>
<g mask="url(#mask2_399_2078)">
<path d="M-43.1519 -714.469L-287.133 131.123L221.4 272.854L590.938 -104.156L-43.1519 -714.469ZM339.934 715.225L-264.834 214.343L244.162 357.802L613.237 -20.9352L339.934 715.225Z" fill="#222222" fill-opacity="0.44"/>
</g>
</g>
<path d="M122.465 117.883C126.664 118.371 128.992 118.615 129.447 118.615H139.848V123.547C134.802 124.035 131.547 126.574 130.082 131.164C129.691 132.466 129.301 133.736 128.91 134.973C127.901 138.228 126.762 140.376 125.492 141.418H122.465V117.883ZM160.453 175.891C160.453 179.536 161.267 181.783 162.895 182.629C163.643 182.987 164.49 183.231 165.434 183.361C166.41 183.492 167.419 183.833 168.461 184.387V188H136.039V184.387C137.081 184.029 138.09 183.736 139.066 183.508C140.043 183.247 140.922 182.922 141.703 182.531C143.363 181.62 144.193 180.139 144.193 178.088V118.615H160.453V175.891ZM175.199 118.615C175.655 118.615 177.982 118.371 182.182 117.883V141.418H179.154C177.885 140.376 176.892 138.732 176.176 136.486C175.492 134.24 174.939 132.482 174.516 131.213C174.092 129.911 173.507 128.723 172.758 127.648C171.098 125.272 168.445 123.905 164.799 123.547V118.615H175.199ZM206.352 143.811C202.413 145.243 200.443 151.77 200.443 163.391C200.443 169.12 200.883 173.596 201.762 176.818C202.673 180.008 204.203 182.027 206.352 182.873V188.732C199.874 188.212 194.535 185.607 190.336 180.92C186.104 176.2 183.988 170.406 183.988 163.537C183.988 156.799 186.104 150.988 190.336 146.105C194.665 141.19 200.004 138.472 206.352 137.951V143.811ZM216.654 163.391C216.654 151.77 214.669 145.243 210.697 143.811V137.951C217.143 138.472 222.481 141.19 226.713 146.105C230.945 150.988 233.061 156.799 233.061 163.537C233.061 170.406 230.945 176.2 226.713 180.92C222.514 185.607 217.175 188.212 210.697 188.732V182.873C212.846 182.059 214.376 180.057 215.287 176.867C216.199 173.645 216.654 169.152 216.654 163.391ZM258.646 122.326V188.732H258.256C253.471 188.732 249.906 187.821 247.562 185.998C245.251 184.175 244.096 181.213 244.096 177.111V144.299H237.602V140.393C238.09 139.872 238.708 139.481 239.457 139.221C240.238 138.96 241.02 138.684 241.801 138.391C243.721 137.674 244.942 136.503 245.463 134.875C247.188 130.122 248.539 127.079 249.516 125.744C250.492 124.377 251.355 123.27 252.104 122.424L258.646 122.326ZM262.992 182.873C265.629 182.873 267.484 182.027 268.559 180.334C269.014 179.585 269.372 178.739 269.633 177.795C269.893 176.818 270.186 175.842 270.512 174.865L274.467 176.428C273.653 180.204 272.644 182.808 271.439 184.24C270.235 185.64 268.982 186.665 267.68 187.316C266.41 187.967 264.848 188.439 262.992 188.732V182.873ZM262.992 138.928H271.781V144.299H262.992V138.928ZM316.947 188.732C312.032 188.732 308.321 187.609 305.814 185.363V156.359C305.814 152.193 305.635 149.491 305.277 148.254C304.626 145.78 303.292 144.299 301.273 143.811V137.951C314.001 138.407 320.365 144.136 320.365 155.139V177.014C320.365 180.92 321.277 182.873 323.1 182.873C324.597 182.873 325.508 180.887 325.834 176.916L329.35 177.795C328.536 183.296 326.143 186.698 322.172 188C320.74 188.488 318.998 188.732 316.947 188.732ZM301.469 186.389C299.613 187.951 297.172 188.732 294.145 188.732C291.15 188.732 288.66 188.456 286.674 187.902C284.688 187.316 282.979 186.47 281.547 185.363C278.454 182.954 276.908 179.65 276.908 175.451C276.908 170.633 279.154 166.825 283.646 164.025C286.869 162.007 292.81 159.826 301.469 157.482V162.658C295.674 164.937 292.777 168.941 292.777 174.67C292.777 178.413 293.656 180.936 295.414 182.238C296.033 182.661 296.928 182.873 298.1 182.873C299.271 182.873 300.395 182.499 301.469 181.75V186.389ZM291.166 146.936C293.38 147.945 294.486 149.442 294.486 151.428C294.486 153.934 293.038 155.578 290.141 156.359C289.327 156.555 288.513 156.652 287.699 156.652C285.323 156.652 283.516 155.985 282.279 154.65C281.042 153.316 280.424 151.737 280.424 149.914C280.424 148.059 280.782 146.48 281.498 145.178C282.214 143.843 283.272 142.655 284.672 141.613C287.699 139.432 291.785 138.212 296.928 137.951V143.811C294.356 143.973 292.436 145.015 291.166 146.936ZM352.836 179.797C352.836 181.49 353.617 182.645 355.18 183.264C355.831 183.524 356.531 183.752 357.279 183.947C358.028 184.143 358.728 184.452 359.379 184.875V188H331.889V184.875C332.507 184.452 333.191 184.143 333.939 183.947C334.688 183.752 335.388 183.524 336.039 183.264C337.569 182.645 338.334 181.49 338.334 179.797V125.451C338.334 123.726 337.569 122.538 336.039 121.887C335.388 121.626 334.688 121.415 333.939 121.252C333.191 121.057 332.507 120.747 331.889 120.324V116.955H352.836V179.797ZM410.893 143.811C407.898 144.624 406.4 146.04 406.4 148.059C406.4 151.314 409.249 154.032 414.945 156.213C419.438 157.938 422.611 159.289 424.467 160.266C426.355 161.21 427.934 162.251 429.203 163.391C432.035 165.995 433.451 169.234 433.451 173.107C433.451 177.697 431.71 181.376 428.227 184.143C424.841 186.812 420.512 188.342 415.238 188.732V182.873C418.656 182.059 420.365 180.171 420.365 177.209C420.365 174.149 417.566 171.529 411.967 169.348C407.572 167.655 404.447 166.337 402.592 165.393C400.769 164.449 399.239 163.423 398.002 162.316C395.235 159.842 393.852 156.799 393.852 153.186C393.852 149.279 395.512 145.812 398.832 142.785C402.185 139.758 406.205 138.146 410.893 137.951V143.811ZM424.271 144.836C423.555 144.543 420.544 144.201 415.238 143.811V137.951C420.902 138.179 425.329 139.53 428.52 142.004C431.189 144.087 432.523 146.398 432.523 148.938C432.523 152.095 431.319 154.178 428.91 155.188C428.064 155.513 426.892 155.676 425.395 155.676C423.897 155.676 422.66 155.204 421.684 154.26C420.74 153.283 420.268 152.095 420.268 150.695C420.268 148.319 421.602 146.366 424.271 144.836ZM402.494 181.506C403.34 182.255 406.14 182.71 410.893 182.873V188.732C405.489 188.309 401.241 186.877 398.148 184.436C395.544 182.352 394.242 179.976 394.242 177.307C394.242 175.549 394.73 174.117 395.707 173.01C396.684 171.87 398.165 171.301 400.15 171.301C402.136 171.301 403.601 171.74 404.545 172.619C405.521 173.498 406.01 174.637 406.01 176.037C406.01 178.479 404.838 180.301 402.494 181.506ZM467.533 187.023C465.385 188.163 462.162 188.732 457.865 188.732C453.568 188.732 450.281 187.512 448.002 185.07C445.723 182.629 444.584 178.918 444.584 173.938V147.424C444.584 145.699 443.803 144.527 442.24 143.908C441.589 143.648 440.889 143.436 440.141 143.273C439.424 143.111 438.79 142.801 438.236 142.346V138.928H459.086V175.256C459.086 177.73 459.477 179.618 460.258 180.92C461.072 182.222 462.227 182.873 463.725 182.873C465.222 182.873 466.492 182.531 467.533 181.848V187.023ZM471.928 147.424C471.928 145.699 471.146 144.527 469.584 143.908C468.933 143.648 468.233 143.436 467.484 143.273C466.768 143.078 466.101 142.769 465.482 142.346V138.928H486.381V179.602C486.381 181.262 487.162 182.401 488.725 183.02C489.376 183.28 490.059 183.508 490.775 183.703C491.524 183.866 492.175 184.159 492.729 184.582V188H471.928V147.424ZM516.264 198.645C516.264 200.402 517.061 201.672 518.656 202.453C519.372 202.779 520.17 203.072 521.049 203.332C521.96 203.592 522.872 203.918 523.783 204.309V207.434H494.877V204.309C495.593 203.885 496.342 203.56 497.123 203.332C497.937 203.137 498.686 202.893 499.369 202.6C500.932 201.916 501.713 200.598 501.713 198.645V147.424C501.713 145.699 500.948 144.527 499.418 143.908C498.767 143.648 498.067 143.436 497.318 143.273C496.602 143.078 495.935 142.769 495.316 142.346V138.928H515.482L516.264 145.129V198.645ZM523.49 143.811C522.481 143.811 521.521 144.038 520.609 144.494V139.221C522.302 138.374 524.516 137.951 527.25 137.951C529.984 137.951 532.605 138.651 535.111 140.051C537.618 141.418 539.783 143.273 541.605 145.617C545.479 150.663 547.416 156.734 547.416 163.83C547.416 171.057 545.398 177.03 541.361 181.75C537.357 186.405 532.361 188.732 526.371 188.732C524.19 188.732 522.27 188.407 520.609 187.756V182.336C521.326 182.694 522.139 182.873 523.051 182.873C528.52 182.873 531.254 176.363 531.254 163.342C531.254 150.321 528.666 143.811 523.49 143.811ZM572.611 198.645C572.611 200.402 573.409 201.672 575.004 202.453C575.72 202.779 576.518 203.072 577.396 203.332C578.308 203.592 579.219 203.918 580.131 204.309V207.434H551.225V204.309C551.941 203.885 552.689 203.56 553.471 203.332C554.285 203.137 555.033 202.893 555.717 202.6C557.279 201.916 558.061 200.598 558.061 198.645V147.424C558.061 145.699 557.296 144.527 555.766 143.908C555.115 143.648 554.415 143.436 553.666 143.273C552.95 143.078 552.283 142.769 551.664 142.346V138.928H571.83L572.611 145.129V198.645ZM579.838 143.811C578.829 143.811 577.868 144.038 576.957 144.494V139.221C578.65 138.374 580.863 137.951 583.598 137.951C586.332 137.951 588.952 138.651 591.459 140.051C593.965 141.418 596.13 143.273 597.953 145.617C601.827 150.663 603.764 156.734 603.764 163.83C603.764 171.057 601.745 177.03 597.709 181.75C593.705 186.405 588.708 188.732 582.719 188.732C580.538 188.732 578.617 188.407 576.957 187.756V182.336C577.673 182.694 578.487 182.873 579.398 182.873C584.867 182.873 587.602 176.363 587.602 163.342C587.602 150.321 585.014 143.811 579.838 143.811ZM630.18 179.797C630.18 181.49 630.961 182.645 632.523 183.264C633.174 183.524 633.874 183.752 634.623 183.947C635.372 184.143 636.072 184.452 636.723 184.875V188H609.232V184.875C609.851 184.452 610.535 184.143 611.283 183.947C612.032 183.752 612.732 183.524 613.383 183.264C614.913 182.645 615.678 181.49 615.678 179.797V125.451C615.678 123.726 614.913 122.538 613.383 121.887C612.732 121.626 612.032 121.415 611.283 121.252C610.535 121.057 609.851 120.747 609.232 120.324V116.955H630.18V179.797ZM658.988 184.338L643.949 148.596C642.68 145.731 640.906 143.973 638.627 143.322C638.041 143.16 637.488 142.932 636.967 142.639V138.928H664.799V142.541C664.376 142.899 663.871 143.143 663.285 143.273C662.699 143.371 662.13 143.501 661.576 143.664C660.242 144.12 659.574 145.064 659.574 146.496C659.574 147.408 659.9 148.645 660.551 150.207L666.41 164.758L658.988 184.338ZM650.639 200.842C650.639 201.851 651.16 202.355 652.201 202.355C653.275 202.355 654.203 202.062 654.984 201.477C655.798 200.891 656.563 200.077 657.279 199.035C658.484 197.212 659.851 194.283 661.381 190.246L676.273 151.135C677.185 148.791 677.641 147.245 677.641 146.496C677.641 145.747 677.445 145.178 677.055 144.787C676.664 144.396 676.16 144.087 675.541 143.859C674.955 143.599 674.304 143.387 673.588 143.225C672.904 143.029 672.253 142.801 671.635 142.541V138.928H689.799V141.223C689.799 142.004 689.538 142.557 689.018 142.883C688.529 143.208 687.943 143.534 687.26 143.859C686.576 144.152 685.876 144.559 685.16 145.08C684.444 145.601 683.874 146.431 683.451 147.57L665.824 193.469C663.936 198.384 661.723 202.111 659.184 204.65C656.645 207.222 653.487 208.508 649.711 208.508C646.228 208.508 643.493 207.499 641.508 205.48C639.717 203.592 638.822 201.314 638.822 198.645C638.822 195.129 640.271 192.72 643.168 191.418C644.112 191.027 645.089 190.832 646.098 190.832C647.139 190.832 648.035 190.979 648.783 191.271C649.532 191.597 650.199 192.004 650.785 192.492C651.957 193.566 652.543 194.641 652.543 195.715C652.543 196.822 652.445 197.635 652.25 198.156C652.055 198.677 651.827 199.1 651.566 199.426C651.339 199.784 651.127 200.061 650.932 200.256C650.736 200.451 650.639 200.646 650.639 200.842Z" fill="black"/>
<path d="M1411.38 130.92C1409.66 131.18 1407.31 131.311 1404.35 131.311V127.209C1406.99 126.005 1409.33 124.751 1411.38 123.449V130.92ZM1415.73 122.229C1420.19 120.048 1422.89 118.632 1423.83 117.98H1431.06V177.307C1431.06 179.976 1432.25 181.75 1434.62 182.629C1435.67 182.987 1436.77 183.264 1437.95 183.459C1439.12 183.654 1440.18 183.964 1441.12 184.387V188H1405.57V184.387C1406.61 183.996 1407.72 183.703 1408.89 183.508C1410.1 183.312 1411.2 183.02 1412.21 182.629C1414.56 181.717 1415.73 179.943 1415.73 177.307V122.229ZM1476.28 189.465C1469.05 188.944 1463.53 185.38 1459.72 178.771C1456.11 172.521 1454.3 164.025 1454.3 153.283C1454.3 142.704 1456.13 134.257 1459.77 127.941C1463.58 121.301 1469.08 117.688 1476.28 117.102V122.082C1474.13 123.352 1472.61 126.607 1471.73 131.848C1470.86 137.056 1470.42 144.185 1470.42 153.234C1470.42 162.251 1470.86 169.396 1471.73 174.67C1472.65 179.911 1474.16 183.182 1476.28 184.484V189.465ZM1480.62 184.484C1482.7 183.182 1484.19 179.943 1485.06 174.768C1485.94 169.559 1486.38 162.398 1486.38 153.283C1486.38 144.169 1485.94 137.04 1485.06 131.896C1484.19 126.753 1482.7 123.498 1480.62 122.131V117.102C1487.68 117.753 1493.12 121.398 1496.93 128.039C1500.61 134.419 1502.45 142.834 1502.45 153.283C1502.45 163.798 1500.61 172.229 1496.93 178.576C1493.09 185.152 1487.65 188.765 1480.62 189.416V184.484ZM1512.9 203.576C1513.78 202.502 1514.72 201.379 1515.73 200.207C1516.77 199.068 1517.73 197.896 1518.61 196.691C1520.73 193.892 1521.95 191.32 1522.27 188.977C1518.82 188.781 1516.25 187.919 1514.56 186.389C1512.86 184.826 1512.02 182.759 1512.02 180.188C1512.02 177.876 1512.78 175.891 1514.31 174.23C1515.94 172.473 1517.76 171.594 1519.78 171.594C1521.8 171.594 1523.38 171.903 1524.52 172.521C1525.69 173.14 1526.67 173.97 1527.45 175.012C1529.01 177.16 1529.79 179.488 1529.79 181.994C1529.79 184.501 1529.48 186.714 1528.86 188.635C1528.24 190.555 1527.37 192.508 1526.23 194.494C1523.85 198.628 1520.73 202.665 1516.85 206.604L1512.9 203.576ZM1560.85 189.465C1553.62 188.944 1548.1 185.38 1544.29 178.771C1540.68 172.521 1538.87 164.025 1538.87 153.283C1538.87 142.704 1540.7 134.257 1544.34 127.941C1548.15 121.301 1553.65 117.688 1560.85 117.102V122.082C1558.7 123.352 1557.18 126.607 1556.3 131.848C1555.43 137.056 1554.99 144.185 1554.99 153.234C1554.99 162.251 1555.43 169.396 1556.3 174.67C1557.22 179.911 1558.73 183.182 1560.85 184.484V189.465ZM1565.19 184.484C1567.27 183.182 1568.76 179.943 1569.63 174.768C1570.51 169.559 1570.95 162.398 1570.95 153.283C1570.95 144.169 1570.51 137.04 1569.63 131.896C1568.76 126.753 1567.27 123.498 1565.19 122.131V117.102C1572.26 117.753 1577.69 121.398 1581.5 128.039C1585.18 134.419 1587.02 142.834 1587.02 153.283C1587.02 163.798 1585.18 172.229 1581.5 178.576C1577.66 185.152 1572.22 188.765 1565.19 189.416V184.484ZM1617.19 189.465C1609.97 188.944 1604.45 185.38 1600.64 178.771C1597.03 172.521 1595.22 164.025 1595.22 153.283C1595.22 142.704 1597.04 134.257 1600.69 127.941C1604.5 121.301 1610 117.688 1617.19 117.102V122.082C1615.04 123.352 1613.53 126.607 1612.65 131.848C1611.77 137.056 1611.33 144.185 1611.33 153.234C1611.33 162.251 1611.77 169.396 1612.65 174.67C1613.56 179.911 1615.08 183.182 1617.19 184.484V189.465ZM1621.54 184.484C1623.62 183.182 1625.1 179.943 1625.98 174.768C1626.86 169.559 1627.3 162.398 1627.3 153.283C1627.3 144.169 1626.86 137.04 1625.98 131.896C1625.1 126.753 1623.62 123.498 1621.54 122.131V117.102C1628.6 117.753 1634.04 121.398 1637.85 128.039C1641.53 134.419 1643.37 142.834 1643.37 153.283C1643.37 163.798 1641.53 172.229 1637.85 178.576C1634.01 185.152 1628.57 188.765 1621.54 189.416V184.484ZM1673.54 189.465C1666.31 188.944 1660.8 185.38 1656.99 178.771C1653.38 172.521 1651.57 164.025 1651.57 153.283C1651.57 142.704 1653.39 134.257 1657.04 127.941C1660.85 121.301 1666.35 117.688 1673.54 117.102V122.082C1671.39 123.352 1669.88 126.607 1669 131.848C1668.12 137.056 1667.68 144.185 1667.68 153.234C1667.68 162.251 1668.12 169.396 1669 174.67C1669.91 179.911 1671.43 183.182 1673.54 184.484V189.465ZM1677.89 184.484C1679.97 183.182 1681.45 179.943 1682.33 174.768C1683.21 169.559 1683.65 162.398 1683.65 153.283C1683.65 144.169 1683.21 137.04 1682.33 131.896C1681.45 126.753 1679.97 123.498 1677.89 122.131V117.102C1684.95 117.753 1690.39 121.398 1694.2 128.039C1697.87 134.419 1699.71 142.834 1699.71 153.283C1699.71 163.798 1697.87 172.229 1694.2 178.576C1690.35 185.152 1684.92 188.765 1677.89 189.416V184.484ZM1710.16 203.576C1711.04 202.502 1711.99 201.379 1712.99 200.207C1714.04 199.068 1715 197.896 1715.88 196.691C1717.99 193.892 1719.21 191.32 1719.54 188.977C1716.09 188.781 1713.51 187.919 1711.82 186.389C1710.13 184.826 1709.28 182.759 1709.28 180.188C1709.28 177.876 1710.05 175.891 1711.58 174.23C1713.21 172.473 1715.03 171.594 1717.05 171.594C1719.07 171.594 1720.64 171.903 1721.78 172.521C1722.96 173.14 1723.93 173.97 1724.71 175.012C1726.28 177.16 1727.06 179.488 1727.06 181.994C1727.06 184.501 1726.75 186.714 1726.13 188.635C1725.51 190.555 1724.63 192.508 1723.49 194.494C1721.12 198.628 1717.99 202.665 1714.12 206.604L1710.16 203.576ZM1758.11 189.465C1750.88 188.944 1745.37 185.38 1741.56 178.771C1737.95 172.521 1736.14 164.025 1736.14 153.283C1736.14 142.704 1737.96 134.257 1741.61 127.941C1745.42 121.301 1750.92 117.688 1758.11 117.102V122.082C1755.96 123.352 1754.45 126.607 1753.57 131.848C1752.69 137.056 1752.25 144.185 1752.25 153.234C1752.25 162.251 1752.69 169.396 1753.57 174.67C1754.48 179.911 1756 183.182 1758.11 184.484V189.465ZM1762.46 184.484C1764.54 183.182 1766.02 179.943 1766.9 174.768C1767.78 169.559 1768.22 162.398 1768.22 153.283C1768.22 144.169 1767.78 137.04 1766.9 131.896C1766.02 126.753 1764.54 123.498 1762.46 122.131V117.102C1769.52 117.753 1774.96 121.398 1778.77 128.039C1782.44 134.419 1784.28 142.834 1784.28 153.283C1784.28 163.798 1782.44 172.229 1778.77 178.576C1774.92 185.152 1769.49 188.765 1762.46 189.416V184.484ZM1814.46 189.465C1807.23 188.944 1801.71 185.38 1797.91 178.771C1794.29 172.521 1792.49 164.025 1792.49 153.283C1792.49 142.704 1794.31 134.257 1797.96 127.941C1801.76 121.301 1807.26 117.688 1814.46 117.102V122.082C1812.31 123.352 1810.8 126.607 1809.92 131.848C1809.04 137.056 1808.6 144.185 1808.6 153.234C1808.6 162.251 1809.04 169.396 1809.92 174.67C1810.83 179.911 1812.34 183.182 1814.46 184.484V189.465ZM1818.8 184.484C1820.89 183.182 1822.37 179.943 1823.25 174.768C1824.13 169.559 1824.57 162.398 1824.57 153.283C1824.57 144.169 1824.13 137.04 1823.25 131.896C1822.37 126.753 1820.89 123.498 1818.8 122.131V117.102C1825.87 117.753 1831.3 121.398 1835.11 128.039C1838.79 134.419 1840.63 142.834 1840.63 153.283C1840.63 163.798 1838.79 172.229 1835.11 178.576C1831.27 185.152 1825.84 188.765 1818.8 189.416V184.484ZM1870.81 189.465C1863.58 188.944 1858.06 185.38 1854.25 178.771C1850.64 172.521 1848.83 164.025 1848.83 153.283C1848.83 142.704 1850.66 134.257 1854.3 127.941C1858.11 121.301 1863.61 117.688 1870.81 117.102V122.082C1868.66 123.352 1867.14 126.607 1866.27 131.848C1865.39 137.056 1864.95 144.185 1864.95 153.234C1864.95 162.251 1865.39 169.396 1866.27 174.67C1867.18 179.911 1868.69 183.182 1870.81 184.484V189.465ZM1875.15 184.484C1877.24 183.182 1878.72 179.943 1879.6 174.768C1880.47 169.559 1880.91 162.398 1880.91 153.283C1880.91 144.169 1880.47 137.04 1879.6 131.896C1878.72 126.753 1877.24 123.498 1875.15 122.131V117.102C1882.22 117.753 1887.65 121.398 1891.46 128.039C1895.14 134.419 1896.98 142.834 1896.98 153.283C1896.98 163.798 1895.14 172.229 1891.46 178.576C1887.62 185.152 1882.18 188.765 1875.15 189.416V184.484Z" fill="black"/>
</g>
<defs>
<clipPath id="clip0_399_2078">
<rect width="2020" height="321" fill="white"/>
</clipPath>
</defs>
</svg>
