<svg width="2020" height="321" viewBox="0 0 2020 321" fill="none" xmlns="http://www.w3.org/2000/svg">
<g clip-path="url(#clip0_399_2183)">
<mask id="mask0_399_2183" style="mask-type:luminance" maskUnits="userSpaceOnUse" x="0" y="0" width="2020" height="321">
<path d="M2020 0H0V321H2020V0Z" fill="white"/>
</mask>
<g mask="url(#mask0_399_2183)">
<path d="M2020 0H0V321H2020V0Z" fill="#FFD43C"/>
<mask id="mask1_399_2183" style="mask-type:luminance" maskUnits="userSpaceOnUse" x="1739" y="-160" width="390" height="390">
<path d="M2046.16 -159.998L1739 -77.6953L1821.3 229.464L2128.46 147.161L2046.16 -159.998Z" fill="white"/>
</mask>
<g mask="url(#mask1_399_2183)">
<path d="M1892.58 -118.852L1840.16 62.8182L1949.42 93.2682L2028.81 12.2702L1892.58 -118.852ZM1974.88 188.308L1844.95 80.6972L1954.31 111.518L2033.6 30.1492L1974.88 188.308Z" fill="#222222" fill-opacity="0.44"/>
</g>
<mask id="mask2_399_2183" style="mask-type:luminance" maskUnits="userSpaceOnUse" x="-209" y="-907" width="1813" height="1814">
<path d="M1220.7 -906.008L-209 -522.922L174.086 906.774L1603.78 523.688L1220.7 -906.008Z" fill="white"/>
</mask>
<g mask="url(#mask2_399_2183)">
<path d="M505.848 -714.469L261.867 131.123L770.4 272.854L1139.94 -104.156L505.848 -714.469ZM888.934 715.225L284.166 214.343L793.162 357.802L1162.24 -20.9352L888.934 715.225Z" fill="#222222" fill-opacity="0.44"/>
</g>
</g>
<path d="M140.873 155.139V177.209C140.873 179.846 141.768 181.62 143.559 182.531C144.307 182.954 145.121 183.28 146 183.508C146.911 183.736 147.774 184.094 148.588 184.582V188H126.908V184.582C127.592 184.094 128.357 183.736 129.203 183.508C130.082 183.247 130.896 182.922 131.645 182.531C133.435 181.62 134.33 179.846 134.33 177.209V137.707L140.873 155.139ZM136.186 130.383C135.632 129.016 135.128 127.811 134.672 126.77C133.826 126.574 132.947 126.379 132.035 126.184C131.156 125.988 130.277 125.793 129.398 125.598C127.51 125.109 126.046 124.654 125.004 124.23V118.615H148.539L169.682 173.986L166.166 188H157.768L136.186 130.383ZM168.314 158.361L178.275 118.615H204.057V122.277C203.178 122.635 202.331 122.912 201.518 123.107C200.704 123.27 199.971 123.514 199.32 123.84C197.888 124.556 197.172 125.939 197.172 127.99V178.723C197.172 180.741 197.888 182.108 199.32 182.824C199.971 183.15 200.704 183.41 201.518 183.605C202.331 183.768 203.178 184.029 204.057 184.387V188H174.32V184.387C175.199 184.029 176.046 183.768 176.859 183.605C177.706 183.41 178.454 183.15 179.105 182.824C180.57 182.108 181.303 180.741 181.303 178.723V129.113H181.059L171.635 166.955L168.314 158.361ZM250.541 188.732C245.626 188.732 241.915 187.609 239.408 185.363V156.359C239.408 152.193 239.229 149.491 238.871 148.254C238.22 145.78 236.885 144.299 234.867 143.811V137.951C247.595 138.407 253.959 144.136 253.959 155.139V177.014C253.959 180.92 254.87 182.873 256.693 182.873C258.191 182.873 259.102 180.887 259.428 176.916L262.943 177.795C262.13 183.296 259.737 186.698 255.766 188C254.333 188.488 252.592 188.732 250.541 188.732ZM235.062 186.389C233.207 187.951 230.766 188.732 227.738 188.732C224.743 188.732 222.253 188.456 220.268 187.902C218.282 187.316 216.573 186.47 215.141 185.363C212.048 182.954 210.502 179.65 210.502 175.451C210.502 170.633 212.748 166.825 217.24 164.025C220.463 162.007 226.404 159.826 235.062 157.482V162.658C229.268 164.937 226.371 168.941 226.371 174.67C226.371 178.413 227.25 180.936 229.008 182.238C229.626 182.661 230.521 182.873 231.693 182.873C232.865 182.873 233.988 182.499 235.062 181.75V186.389ZM224.76 146.936C226.973 147.945 228.08 149.442 228.08 151.428C228.08 153.934 226.632 155.578 223.734 156.359C222.921 156.555 222.107 156.652 221.293 156.652C218.917 156.652 217.11 155.985 215.873 154.65C214.636 153.316 214.018 151.737 214.018 149.914C214.018 148.059 214.376 146.48 215.092 145.178C215.808 143.843 216.866 142.655 218.266 141.613C221.293 139.432 225.378 138.212 230.521 137.951V143.811C227.95 143.973 226.029 145.015 224.76 146.936ZM295.072 147.424C293.575 147.424 292.045 149.1 290.482 152.453L290.189 143.127C292.859 139.676 296.277 137.951 300.443 137.951C302.885 137.951 304.968 138.846 306.693 140.637C308.321 142.329 309.135 144.299 309.135 146.545C309.135 148.921 308.451 150.923 307.084 152.551C305.652 154.276 303.829 155.139 301.615 155.139C299.369 155.139 297.66 154.309 296.488 152.648C295.544 151.249 295.072 149.507 295.072 147.424ZM285.404 138.928C286.088 146.61 286.43 155.253 286.43 164.855V179.309C286.43 181.034 287.227 182.255 288.822 182.971C289.538 183.296 290.32 183.589 291.166 183.85C292.045 184.11 292.908 184.452 293.754 184.875V188H265.482V184.875C266.101 184.452 266.785 184.143 267.533 183.947C268.282 183.752 268.982 183.524 269.633 183.264C271.163 182.645 271.928 181.49 271.928 179.797V147.424C271.928 145.633 271.163 144.445 269.633 143.859C268.982 143.632 268.282 143.436 267.533 143.273C266.785 143.111 266.101 142.801 265.482 142.346V138.928H285.404ZM336.43 157.287L344.486 150.207C345.691 149.165 346.586 148.319 347.172 147.668C347.79 147.017 348.1 146.382 348.1 145.764C348.1 145.145 347.904 144.706 347.514 144.445C347.156 144.152 346.7 143.924 346.146 143.762C345.593 143.599 344.991 143.436 344.34 143.273C343.689 143.078 343.103 142.769 342.582 142.346V138.928H364.994V141.418C364.994 142.167 364.197 142.932 362.602 143.713C359.086 145.471 356.921 146.708 356.107 147.424L347.221 155.236L360.697 177.648C362.325 180.513 364.359 182.531 366.801 183.703C367.354 183.996 367.908 184.387 368.461 184.875V188H342.777L342.729 184.68C342.729 184.224 343.184 183.915 344.096 183.752C345.04 183.557 345.723 183.394 346.146 183.264C346.602 183.133 346.83 182.922 346.83 182.629C346.407 181.522 345.479 179.715 344.047 177.209C342.615 174.67 341.605 172.88 341.02 171.838L336.43 164.123V157.287ZM317.533 127.6C317.533 124.637 317.094 122.896 316.215 122.375C315.629 121.984 314.734 121.659 313.529 121.398C312.357 121.105 311.576 120.747 311.186 120.324V116.955H332.084L332.035 179.211C332.035 180.969 332.735 182.206 334.135 182.922C334.753 183.215 335.453 183.492 336.234 183.752C337.016 183.98 337.797 184.289 338.578 184.68V188H310.648V184.875C311.365 184.452 312.13 184.143 312.943 183.947C313.757 183.719 314.506 183.459 315.189 183.166C316.752 182.482 317.533 181.164 317.533 179.211V127.6ZM396.244 182.873C402.787 182.548 407.182 178.934 409.428 172.033L413.92 174.084C411.479 183.036 405.587 187.919 396.244 188.732V182.873ZM394.779 137.951C401.485 138.439 406.514 141.109 409.867 145.959C412.862 150.256 414.359 156.001 414.359 163.195H389.213V158.215H399.32C399.32 154.048 398.995 150.76 398.344 148.352C397.725 145.91 396.537 144.396 394.779 143.811V137.951ZM391.898 188.732C384.835 188.179 379.138 185.428 374.809 180.48C370.772 175.891 368.754 170.243 368.754 163.537C368.754 156.506 370.788 150.598 374.857 145.812C378.894 141.027 384.086 138.407 390.434 137.951V143.811C388.285 144.559 386.771 146.577 385.893 149.865C385.046 153.153 384.623 156.864 384.623 160.998C384.623 165.1 384.721 168.176 384.916 170.227C385.144 172.245 385.535 174.068 386.088 175.695C387.227 179.113 389.164 181.506 391.898 182.873V188.732ZM441.459 122.326V188.732H441.068C436.283 188.732 432.719 187.821 430.375 185.998C428.064 184.175 426.908 181.213 426.908 177.111V144.299H420.414V140.393C420.902 139.872 421.521 139.481 422.27 139.221C423.051 138.96 423.832 138.684 424.613 138.391C426.534 137.674 427.755 136.503 428.275 134.875C430.001 130.122 431.352 127.079 432.328 125.744C433.305 124.377 434.167 123.27 434.916 122.424L441.459 122.326ZM445.805 182.873C448.441 182.873 450.297 182.027 451.371 180.334C451.827 179.585 452.185 178.739 452.445 177.795C452.706 176.818 452.999 175.842 453.324 174.865L457.279 176.428C456.465 180.204 455.456 182.808 454.252 184.24C453.048 185.64 451.794 186.665 450.492 187.316C449.223 187.967 447.66 188.439 445.805 188.732V182.873ZM445.805 138.928H454.594V144.299H445.805V138.928ZM479.301 179.797C479.301 181.49 480.082 182.645 481.645 183.264C482.296 183.524 482.995 183.752 483.744 183.947C484.493 184.143 485.193 184.452 485.844 184.875V188H458.354V184.875C458.972 184.452 459.656 184.143 460.404 183.947C461.153 183.752 461.853 183.524 462.504 183.264C464.034 182.645 464.799 181.49 464.799 179.797V147.424C464.799 145.666 464.034 144.51 462.504 143.957C461.853 143.697 461.153 143.485 460.404 143.322C459.656 143.127 458.972 142.801 458.354 142.346V138.928H479.301V179.797ZM471.195 133.117C469.958 133.117 468.835 132.889 467.826 132.434C466.817 131.978 465.954 131.359 465.238 130.578C463.741 128.951 462.992 126.965 462.992 124.621C462.992 122.342 463.741 120.357 465.238 118.664C466.801 116.939 468.786 116.076 471.195 116.076C473.637 116.076 475.639 116.939 477.201 118.664C478.699 120.357 479.447 122.342 479.447 124.621C479.447 126.965 478.699 128.951 477.201 130.578C475.639 132.271 473.637 133.117 471.195 133.117ZM514.896 141.076C517.468 138.993 520.121 137.951 522.855 137.951C525.59 137.951 527.82 138.26 529.545 138.879C531.303 139.497 532.784 140.409 533.988 141.613C536.56 144.185 537.846 147.782 537.846 152.404V177.746C537.846 181.001 538.578 182.84 540.043 183.264C540.499 183.394 540.954 183.508 541.41 183.605C542.68 183.866 543.607 184.289 544.193 184.875V188H521V184.582C521 183.866 521.26 183.28 521.781 182.824C522.335 182.368 522.725 181.978 522.953 181.652C523.214 181.294 523.344 180.741 523.344 179.992V152.893C523.344 149.54 523.116 147.391 522.66 146.447C521.879 144.689 520.658 143.811 518.998 143.811C517.338 143.811 515.971 144.217 514.896 145.031V141.076ZM510.551 177.746C510.551 180.969 511.234 182.808 512.602 183.264C513.025 183.394 513.464 183.508 513.92 183.605C515.124 183.866 516.02 184.289 516.605 184.875V188H489.701V184.875C490.255 184.452 490.889 184.143 491.605 183.947C492.354 183.752 493.054 183.524 493.705 183.264C495.268 182.645 496.049 181.49 496.049 179.797V149.621C496.049 147.31 495.512 145.633 494.438 144.592C493.591 143.745 492.012 142.997 489.701 142.346V138.928H510.551V177.746ZM554.74 186.828C551.452 185.786 549.809 183.996 549.809 181.457C549.809 178.755 551.729 176.053 555.57 173.352L561.137 175.109C559.867 176.086 559.232 177.876 559.232 180.48C572.937 180.48 582.361 181.555 587.504 183.703C590.108 184.777 591.915 186.161 592.924 187.854C593.933 189.514 594.438 191.499 594.438 193.811C594.438 196.122 593.852 198.238 592.68 200.158C591.54 202.079 589.994 203.739 588.041 205.139C583.972 208.068 578.975 209.663 573.051 209.924V205.188C577.706 204.992 580.701 203.267 582.035 200.012C582.426 199.068 582.621 198.059 582.621 196.984C582.621 195.031 581.628 193.42 579.643 192.15C577.657 190.881 575.199 190.246 572.27 190.246C567.712 190.246 564.408 190.393 562.357 190.686C561.869 191.89 561.625 193.225 561.625 194.689V197.57C561.625 199.686 562.13 201.395 563.139 202.697C564.148 203.999 566.003 204.797 568.705 205.09V209.875C561.055 209.452 555.961 206.506 553.422 201.037C552.543 199.149 552.104 196.854 552.104 194.152C552.104 191.451 552.982 189.009 554.74 186.828ZM587.992 135.021C585.909 135.021 584.867 136.324 584.867 138.928C584.867 140.23 585.03 141.076 585.355 141.467C585.714 141.857 586.072 142.199 586.43 142.492C586.82 142.785 587.504 143.404 588.48 144.348C590.564 146.398 591.605 149.816 591.605 154.602C591.605 159.842 589.783 164.107 586.137 167.395C582.654 170.552 578.292 172.294 573.051 172.619V167.98C574.711 167.427 575.85 166.092 576.469 163.977C577.12 161.861 577.445 158.882 577.445 155.041C577.445 151.2 577.12 148.319 576.469 146.398C575.818 144.478 574.678 143.273 573.051 142.785V137.951C575.915 138.049 578.275 138.423 580.131 139.074C580.131 134.647 582.198 131.685 586.332 130.188C587.634 129.699 589.083 129.455 590.678 129.455C592.305 129.455 593.689 129.667 594.828 130.09C596 130.48 596.96 131.034 597.709 131.75C599.141 133.085 599.857 134.794 599.857 136.877C599.857 138.96 599.288 140.523 598.148 141.564C597.042 142.606 595.577 143.127 593.754 143.127C591.931 143.127 590.45 142.622 589.311 141.613C588.204 140.604 587.65 139.318 587.65 137.756C587.65 137.17 587.732 136.665 587.895 136.242C588.09 135.786 588.188 135.477 588.188 135.314C588.188 135.119 588.122 135.021 587.992 135.021ZM568.705 172.717C558.972 172.424 552.966 169.217 550.688 163.098C549.874 160.982 549.467 158.492 549.467 155.627C549.467 152.762 549.923 150.288 550.834 148.205C551.778 146.089 553.096 144.315 554.789 142.883C558.142 139.986 562.781 138.342 568.705 137.951V142.785C566.785 143.111 565.45 144.201 564.701 146.057C563.985 147.847 563.627 150.793 563.627 154.895C563.627 158.996 564.001 162.121 564.75 164.27C565.499 166.418 566.817 167.704 568.705 168.127V172.717Z" fill="black"/>
<path d="M1766.63 188.977C1761.55 188.586 1757.47 186.958 1754.38 184.094C1751.35 181.327 1749.83 177.909 1749.83 173.84C1749.83 169.543 1751.58 166.678 1755.06 165.246C1756.13 164.79 1757.3 164.562 1758.57 164.562C1759.84 164.562 1760.95 164.758 1761.89 165.148C1762.87 165.539 1763.68 166.06 1764.34 166.711C1765.64 168.013 1766.29 169.722 1766.29 171.838C1766.29 173.824 1765.18 175.37 1762.97 176.477C1761.57 177.16 1760.66 177.73 1760.23 178.186C1759.84 178.609 1759.65 179.13 1759.65 179.748C1759.65 180.367 1759.83 180.985 1760.19 181.604C1760.54 182.189 1761.03 182.694 1761.65 183.117C1762.95 183.964 1764.61 184.419 1766.63 184.484V188.977ZM1782.01 132.482C1774.56 132.482 1766.76 132.32 1758.62 131.994V154.699C1758.62 156.945 1757.66 158.068 1755.74 158.068C1753.82 158.068 1752.86 156.783 1752.86 154.211L1753.11 150.402L1753.15 118.42C1760.51 119.201 1767.75 119.592 1774.88 119.592C1782.04 119.592 1786.52 118.697 1788.31 116.906C1789.29 116.906 1790.12 117.069 1790.8 117.395C1790.8 125.142 1787.87 130.171 1782.01 132.482ZM1776.25 153.234C1775.27 151.704 1774.09 150.581 1772.69 149.865C1771.32 149.149 1769.74 148.791 1767.95 148.791C1766.16 148.791 1764.5 149.247 1762.97 150.158V144.836C1765.7 143.404 1768.68 142.688 1771.9 142.688C1775.13 142.688 1778.22 143.241 1781.18 144.348C1784.14 145.454 1786.73 147.001 1788.95 148.986C1793.67 153.251 1796.03 158.719 1796.03 165.393C1796.03 172.163 1793.7 177.681 1789.04 181.945C1784.52 186.177 1778.5 188.521 1770.98 188.977V183.752C1773.71 182.775 1775.78 180.855 1777.18 177.99C1778.61 175.093 1779.33 171.789 1779.33 168.078C1779.33 164.367 1779.05 161.34 1778.5 158.996C1777.98 156.652 1777.23 154.732 1776.25 153.234ZM1819.17 189.514H1812.92L1860.48 117.102H1866.73L1819.17 189.514ZM1857.4 153.918C1855.48 155.611 1854.52 160.77 1854.52 169.396C1854.52 178.023 1855.48 183.231 1857.4 185.021V188.537C1853.04 188.049 1849.65 185.917 1847.25 182.141C1845 178.69 1843.88 174.475 1843.88 169.494C1843.88 164.481 1845 160.266 1847.25 156.848C1849.65 153.104 1853.04 150.988 1857.4 150.5V153.918ZM1861.75 185.021C1863.67 183.231 1864.63 178.023 1864.63 169.396C1864.63 160.77 1863.67 155.611 1861.75 153.918V150.5C1866.11 150.988 1869.51 153.104 1871.95 156.848C1874.17 160.266 1875.27 164.481 1875.27 169.494C1875.27 174.475 1874.17 178.69 1871.95 182.141C1869.51 185.917 1866.11 188.049 1861.75 188.537V185.021ZM1818.05 120.471C1816.13 122.163 1815.17 127.323 1815.17 135.949C1815.17 144.576 1816.13 149.784 1818.05 151.574V155.09C1813.68 154.602 1810.3 152.486 1807.89 148.742C1805.64 145.259 1804.52 141.027 1804.52 136.047C1804.52 131.034 1805.64 126.818 1807.89 123.4C1810.3 119.657 1813.68 117.541 1818.05 117.053V120.471ZM1822.39 151.574C1824.31 149.784 1825.27 144.576 1825.27 135.949C1825.27 127.323 1824.31 122.163 1822.39 120.471V117.053C1826.75 117.541 1830.16 119.657 1832.6 123.4C1834.81 126.818 1835.92 131.034 1835.92 136.047C1835.92 141.027 1834.81 145.259 1832.6 148.742C1830.16 152.486 1826.75 154.602 1822.39 155.09V151.574Z" fill="black"/>
</g>
<defs>
<clipPath id="clip0_399_2183">
<rect width="2020" height="321" fill="white"/>
</clipPath>
</defs>
</svg>
