<svg width="2020" height="321" viewBox="0 0 2020 321" fill="none" xmlns="http://www.w3.org/2000/svg">
<g clip-path="url(#clip0_399_2165)">
<mask id="mask0_399_2165" style="mask-type:luminance" maskUnits="userSpaceOnUse" x="0" y="0" width="2020" height="321">
<path d="M2020 0H0V321H2020V0Z" fill="white"/>
</mask>
<g mask="url(#mask0_399_2165)">
<path d="M2020 0H0V321H2020V0Z" fill="#FFD43C"/>
<mask id="mask1_399_2165" style="mask-type:luminance" maskUnits="userSpaceOnUse" x="1739" y="-160" width="390" height="390">
<path d="M2046.16 -159.998L1739 -77.6953L1821.3 229.464L2128.46 147.161L2046.16 -159.998Z" fill="white"/>
</mask>
<g mask="url(#mask1_399_2165)">
<path d="M1892.58 -118.852L1840.16 62.8182L1949.42 93.2682L2028.81 12.2702L1892.58 -118.852ZM1974.88 188.308L1844.95 80.6972L1954.31 111.518L2033.6 30.1492L1974.88 188.308Z" fill="#222222" fill-opacity="0.44"/>
</g>
<mask id="mask2_399_2165" style="mask-type:luminance" maskUnits="userSpaceOnUse" x="-209" y="-907" width="1813" height="1814">
<path d="M1220.7 -906.008L-209 -522.922L174.086 906.774L1603.78 523.688L1220.7 -906.008Z" fill="white"/>
</mask>
<g mask="url(#mask2_399_2165)">
<path d="M505.848 -714.469L261.867 131.123L770.4 272.854L1139.94 -104.156L505.848 -714.469ZM888.934 715.225L284.166 214.343L793.162 357.802L1162.24 -20.9352L888.934 715.225Z" fill="#222222" fill-opacity="0.44"/>
</g>
</g>
<path d="M152.641 183.264C152.836 183.296 153.048 183.312 153.275 183.312C153.503 183.312 153.731 183.312 153.959 183.312C161.316 183.312 166.28 180.546 168.852 175.012C169.535 173.514 170.121 172.049 170.609 170.617C171.13 169.152 171.635 167.801 172.123 166.564C172.644 165.327 173.327 164.367 174.174 163.684H177.494V188H152.641V183.264ZM148.246 188H125.053V184.387C125.932 184.029 126.778 183.768 127.592 183.605C128.438 183.41 129.187 183.15 129.838 182.824C131.303 182.108 132.035 180.741 132.035 178.723V127.99C132.035 125.939 131.303 124.556 129.838 123.84C129.187 123.514 128.438 123.27 127.592 123.107C126.778 122.912 125.932 122.635 125.053 122.277V118.615H155.57V122.277C154.594 122.635 153.666 122.912 152.787 123.107C151.908 123.27 151.143 123.514 150.492 123.84C148.995 124.556 148.246 125.939 148.246 127.99V188ZM201.176 179.797C201.176 181.49 201.957 182.645 203.52 183.264C204.171 183.524 204.87 183.752 205.619 183.947C206.368 184.143 207.068 184.452 207.719 184.875V188H180.229V184.875C180.847 184.452 181.531 184.143 182.279 183.947C183.028 183.752 183.728 183.524 184.379 183.264C185.909 182.645 186.674 181.49 186.674 179.797V147.424C186.674 145.666 185.909 144.51 184.379 143.957C183.728 143.697 183.028 143.485 182.279 143.322C181.531 143.127 180.847 142.801 180.229 142.346V138.928H201.176V179.797ZM193.07 133.117C191.833 133.117 190.71 132.889 189.701 132.434C188.692 131.978 187.829 131.359 187.113 130.578C185.616 128.951 184.867 126.965 184.867 124.621C184.867 122.342 185.616 120.357 187.113 118.664C188.676 116.939 190.661 116.076 193.07 116.076C195.512 116.076 197.514 116.939 199.076 118.664C200.574 120.357 201.322 122.342 201.322 124.621C201.322 126.965 200.574 128.951 199.076 130.578C197.514 132.271 195.512 133.117 193.07 133.117ZM233.695 181.848C234.704 182.531 235.86 182.873 237.162 182.873C238.464 182.873 239.49 182.58 240.238 181.994V187.219C238.22 188.228 235.844 188.732 233.109 188.732C230.375 188.732 227.738 188.13 225.199 186.926C222.693 185.721 220.528 184.029 218.705 181.848C214.864 177.29 212.943 171.317 212.943 163.928C212.943 156.245 215.173 149.93 219.633 144.982C223.897 140.295 228.959 137.951 234.818 137.951C236.771 137.951 238.578 138.146 240.238 138.537V144.299C239.652 143.973 238.725 143.811 237.455 143.811C236.186 143.811 235.014 144.299 233.939 145.275C232.865 146.219 231.97 147.57 231.254 149.328C229.854 152.876 229.154 157.059 229.154 161.877C229.154 166.662 229.317 170.259 229.643 172.668C230.001 175.077 230.521 177.046 231.205 178.576C231.889 180.074 232.719 181.164 233.695 181.848ZM259.428 138.928C259.2 140.588 259.086 142.915 259.086 145.91V198.645C259.086 200.598 259.867 201.916 261.43 202.6C262.113 202.893 262.846 203.137 263.627 203.332C264.441 203.56 265.206 203.885 265.922 204.309V207.434H237.016V204.309C237.927 203.918 238.839 203.592 239.75 203.332C240.661 203.072 241.475 202.779 242.191 202.453C243.786 201.672 244.584 200.402 244.584 198.645V139.807C246.049 140.425 247.302 141.06 248.344 141.711C249.385 142.329 250.281 142.85 251.029 143.273C251.615 143.046 252.266 142.557 252.982 141.809L254.691 139.953C255.082 139.53 255.424 139.188 255.717 138.928H259.428ZM297.221 187.023C295.072 188.163 291.85 188.732 287.553 188.732C283.256 188.732 279.968 187.512 277.689 185.07C275.411 182.629 274.271 178.918 274.271 173.938V147.424C274.271 145.699 273.49 144.527 271.928 143.908C271.277 143.648 270.577 143.436 269.828 143.273C269.112 143.111 268.477 142.801 267.924 142.346V138.928H288.773V175.256C288.773 177.73 289.164 179.618 289.945 180.92C290.759 182.222 291.915 182.873 293.412 182.873C294.91 182.873 296.179 182.531 297.221 181.848V187.023ZM301.615 147.424C301.615 145.699 300.834 144.527 299.271 143.908C298.62 143.648 297.921 143.436 297.172 143.273C296.456 143.078 295.788 142.769 295.17 142.346V138.928H316.068V179.602C316.068 181.262 316.85 182.401 318.412 183.02C319.063 183.28 319.747 183.508 320.463 183.703C321.212 183.866 321.863 184.159 322.416 184.582V188H301.615V147.424ZM347.172 179.797C347.172 181.49 347.953 182.645 349.516 183.264C350.167 183.524 350.867 183.752 351.615 183.947C352.364 184.143 353.064 184.452 353.715 184.875V188H326.225V184.875C326.843 184.452 327.527 184.143 328.275 183.947C329.024 183.752 329.724 183.524 330.375 183.264C331.905 182.645 332.67 181.49 332.67 179.797V147.424C332.67 145.666 331.905 144.51 330.375 143.957C329.724 143.697 329.024 143.485 328.275 143.322C327.527 143.127 326.843 142.801 326.225 142.346V138.928H347.172V179.797ZM339.066 133.117C337.829 133.117 336.706 132.889 335.697 132.434C334.688 131.978 333.826 131.359 333.109 130.578C331.612 128.951 330.863 126.965 330.863 124.621C330.863 122.342 331.612 120.357 333.109 118.664C334.672 116.939 336.658 116.076 339.066 116.076C341.508 116.076 343.51 116.939 345.072 118.664C346.57 120.357 347.318 122.342 347.318 124.621C347.318 126.965 346.57 128.951 345.072 130.578C343.51 132.271 341.508 133.117 339.066 133.117ZM389.799 183.41V125.451C389.799 123.726 389.034 122.538 387.504 121.887C386.853 121.626 386.153 121.415 385.404 121.252C384.656 121.057 383.972 120.747 383.354 120.324V116.955H404.301V179.797C404.301 181.49 405.049 182.645 406.547 183.264C407.165 183.524 407.8 183.752 408.451 183.947C409.135 184.143 409.721 184.452 410.209 184.875V188H390.434L389.799 183.41ZM385.453 187.268C383.5 188.244 381.14 188.732 378.373 188.732C375.606 188.732 372.969 188.098 370.463 186.828C367.956 185.526 365.824 183.768 364.066 181.555C360.323 176.965 358.451 171.236 358.451 164.367C358.451 156.945 360.616 150.63 364.945 145.422C369.145 140.441 374.141 137.951 379.936 137.951C382.182 137.951 384.021 138.26 385.453 138.879V144.445C384.77 144.022 383.744 143.811 382.377 143.811C381.042 143.811 379.854 144.331 378.812 145.373C377.803 146.415 376.99 147.798 376.371 149.523C375.232 152.746 374.662 156.49 374.662 160.754C374.662 165.018 374.743 168.371 374.906 170.812C375.069 173.254 375.427 175.37 375.98 177.16C377.12 180.969 379.236 182.873 382.328 182.873C383.76 182.873 384.802 182.58 385.453 181.994V187.268ZM434.77 179.797C434.77 181.49 435.551 182.645 437.113 183.264C437.764 183.524 438.464 183.752 439.213 183.947C439.962 184.143 440.661 184.452 441.312 184.875V188H413.822V184.875C414.441 184.452 415.124 184.143 415.873 183.947C416.622 183.752 417.322 183.524 417.973 183.264C419.503 182.645 420.268 181.49 420.268 179.797V147.424C420.268 145.666 419.503 144.51 417.973 143.957C417.322 143.697 416.622 143.485 415.873 143.322C415.124 143.127 414.441 142.801 413.822 142.346V138.928H434.77V179.797ZM426.664 133.117C425.427 133.117 424.304 132.889 423.295 132.434C422.286 131.978 421.423 131.359 420.707 130.578C419.21 128.951 418.461 126.965 418.461 124.621C418.461 122.342 419.21 120.357 420.707 118.664C422.27 116.939 424.255 116.076 426.664 116.076C429.105 116.076 431.107 116.939 432.67 118.664C434.167 120.357 434.916 122.342 434.916 124.621C434.916 126.965 434.167 128.951 432.67 130.578C431.107 132.271 429.105 133.117 426.664 133.117ZM465.775 122.326V188.732H465.385C460.6 188.732 457.035 187.821 454.691 185.998C452.38 184.175 451.225 181.213 451.225 177.111V144.299H444.73V140.393C445.219 139.872 445.837 139.481 446.586 139.221C447.367 138.96 448.148 138.684 448.93 138.391C450.85 137.674 452.071 136.503 452.592 134.875C454.317 130.122 455.668 127.079 456.645 125.744C457.621 124.377 458.484 123.27 459.232 122.424L465.775 122.326ZM470.121 182.873C472.758 182.873 474.613 182.027 475.688 180.334C476.143 179.585 476.501 178.739 476.762 177.795C477.022 176.818 477.315 175.842 477.641 174.865L481.596 176.428C480.782 180.204 479.773 182.808 478.568 184.24C477.364 185.64 476.111 186.665 474.809 187.316C473.539 187.967 471.977 188.439 470.121 188.732V182.873ZM470.121 138.928H478.91V144.299H470.121V138.928ZM501.078 184.338L486.039 148.596C484.77 145.731 482.995 143.973 480.717 143.322C480.131 143.16 479.577 142.932 479.057 142.639V138.928H506.889V142.541C506.465 142.899 505.961 143.143 505.375 143.273C504.789 143.371 504.219 143.501 503.666 143.664C502.331 144.12 501.664 145.064 501.664 146.496C501.664 147.408 501.99 148.645 502.641 150.207L508.5 164.758L501.078 184.338ZM492.729 200.842C492.729 201.851 493.249 202.355 494.291 202.355C495.365 202.355 496.293 202.062 497.074 201.477C497.888 200.891 498.653 200.077 499.369 199.035C500.574 197.212 501.941 194.283 503.471 190.246L518.363 151.135C519.275 148.791 519.73 147.245 519.73 146.496C519.73 145.747 519.535 145.178 519.145 144.787C518.754 144.396 518.249 144.087 517.631 143.859C517.045 143.599 516.394 143.387 515.678 143.225C514.994 143.029 514.343 142.801 513.725 142.541V138.928H531.889V141.223C531.889 142.004 531.628 142.557 531.107 142.883C530.619 143.208 530.033 143.534 529.35 143.859C528.666 144.152 527.966 144.559 527.25 145.08C526.534 145.601 525.964 146.431 525.541 147.57L507.914 193.469C506.026 198.384 503.812 202.111 501.273 204.65C498.734 207.222 495.577 208.508 491.801 208.508C488.318 208.508 485.583 207.499 483.598 205.48C481.807 203.592 480.912 201.314 480.912 198.645C480.912 195.129 482.361 192.72 485.258 191.418C486.202 191.027 487.178 190.832 488.188 190.832C489.229 190.832 490.124 190.979 490.873 191.271C491.622 191.597 492.289 192.004 492.875 192.492C494.047 193.566 494.633 194.641 494.633 195.715C494.633 196.822 494.535 197.635 494.34 198.156C494.145 198.677 493.917 199.1 493.656 199.426C493.428 199.784 493.217 200.061 493.021 200.256C492.826 200.451 492.729 200.646 492.729 200.842Z" fill="black"/>
<path d="M1741.01 143.811C1743.13 141.564 1744.18 138.244 1744.18 133.85C1744.18 128.902 1742.62 125.305 1739.5 123.059C1738.42 122.277 1737.18 121.789 1735.79 121.594V117.102C1741.51 117.427 1746.07 119.055 1749.46 121.984C1753.04 125.044 1754.83 129.113 1754.83 134.191C1754.83 138.521 1753.22 141.971 1749.99 144.543C1748.99 145.324 1747.86 146.073 1746.62 146.789L1741.01 143.811ZM1725.19 160.656C1722.68 163.423 1721.43 166.841 1721.43 170.91C1721.43 176.118 1723.22 180.041 1726.8 182.678C1727.97 183.557 1729.36 184.159 1730.95 184.484V188.977C1725.09 188.716 1720.19 186.991 1716.25 183.801C1712.05 180.448 1709.96 176.118 1709.96 170.812C1709.96 165.734 1713.15 161.226 1719.53 157.287L1725.19 160.656ZM1732.9 160.266C1731.54 159.549 1730.17 158.882 1728.8 158.264C1727.47 157.613 1725.84 156.734 1723.92 155.627C1722.03 154.488 1720.21 153.153 1718.45 151.623C1716.73 150.061 1715.34 148.482 1714.3 146.887C1712.51 144.12 1711.62 141.125 1711.62 137.902C1711.62 134.68 1712.07 131.929 1712.98 129.65C1713.93 127.339 1715.24 125.305 1716.94 123.547C1720.65 119.771 1725.48 117.622 1731.44 117.102V121.545C1729.26 121.903 1727.48 122.928 1726.12 124.621C1724.78 126.314 1724.12 128.446 1724.12 131.018C1724.12 133.557 1724.65 135.64 1725.73 137.268C1726.83 138.863 1728.18 140.279 1729.78 141.516C1731.37 142.753 1733.08 143.843 1734.91 144.787C1736.76 145.699 1738.81 146.724 1741.06 147.863C1743.34 148.97 1745.58 150.24 1747.8 151.672C1750.01 153.072 1751.83 154.569 1753.27 156.164C1756.1 159.322 1757.51 163.26 1757.51 167.98C1757.51 173.742 1755.46 178.56 1751.36 182.434C1747.26 186.275 1741.9 188.456 1735.3 188.977V184.484C1738 184.061 1740.13 182.792 1741.69 180.676C1743.09 178.82 1743.79 176.753 1743.79 174.475C1743.79 172.163 1743.48 170.357 1742.87 169.055C1742.25 167.753 1741.43 166.581 1740.42 165.539C1739.41 164.465 1738.24 163.505 1736.91 162.658C1735.61 161.779 1734.27 160.982 1732.9 160.266ZM1783.88 188.977C1778.8 188.586 1774.72 186.958 1771.62 184.094C1768.6 181.327 1767.08 177.909 1767.08 173.84C1767.08 169.543 1768.83 166.678 1772.31 165.246C1773.38 164.79 1774.55 164.562 1775.82 164.562C1777.09 164.562 1778.2 164.758 1779.14 165.148C1780.12 165.539 1780.93 166.06 1781.59 166.711C1782.89 168.013 1783.54 169.722 1783.54 171.838C1783.54 173.824 1782.43 175.37 1780.22 176.477C1778.82 177.16 1777.91 177.73 1777.48 178.186C1777.09 178.609 1776.9 179.13 1776.9 179.748C1776.9 180.367 1777.08 180.985 1777.44 181.604C1777.79 182.189 1778.28 182.694 1778.9 183.117C1780.2 183.964 1781.86 184.419 1783.88 184.484V188.977ZM1799.26 132.482C1791.81 132.482 1784.01 132.32 1775.87 131.994V154.699C1775.87 156.945 1774.91 158.068 1772.99 158.068C1771.07 158.068 1770.11 156.783 1770.11 154.211L1770.36 150.402L1770.4 118.42C1777.76 119.201 1785 119.592 1792.13 119.592C1799.29 119.592 1803.77 118.697 1805.56 116.906C1806.54 116.906 1807.37 117.069 1808.05 117.395C1808.05 125.142 1805.12 130.171 1799.26 132.482ZM1793.5 153.234C1792.52 151.704 1791.34 150.581 1789.94 149.865C1788.57 149.149 1786.99 148.791 1785.2 148.791C1783.41 148.791 1781.75 149.247 1780.22 150.158V144.836C1782.95 143.404 1785.93 142.688 1789.15 142.688C1792.38 142.688 1795.47 143.241 1798.43 144.348C1801.39 145.454 1803.98 147.001 1806.2 148.986C1810.92 153.251 1813.28 158.719 1813.28 165.393C1813.28 172.163 1810.95 177.681 1806.29 181.945C1801.77 186.177 1795.75 188.521 1788.23 188.977V183.752C1790.96 182.775 1793.03 180.855 1794.43 177.99C1795.86 175.093 1796.58 171.789 1796.58 168.078C1796.58 164.367 1796.3 161.34 1795.75 158.996C1795.23 156.652 1794.48 154.732 1793.5 153.234ZM1836.42 189.514H1830.17L1877.73 117.102H1883.98L1836.42 189.514ZM1874.65 153.918C1872.73 155.611 1871.77 160.77 1871.77 169.396C1871.77 178.023 1872.73 183.231 1874.65 185.021V188.537C1870.29 188.049 1866.9 185.917 1864.5 182.141C1862.25 178.69 1861.13 174.475 1861.13 169.494C1861.13 164.481 1862.25 160.266 1864.5 156.848C1866.9 153.104 1870.29 150.988 1874.65 150.5V153.918ZM1879 185.021C1880.92 183.231 1881.88 178.023 1881.88 169.396C1881.88 160.77 1880.92 155.611 1879 153.918V150.5C1883.36 150.988 1886.76 153.104 1889.2 156.848C1891.42 160.266 1892.52 164.481 1892.52 169.494C1892.52 174.475 1891.42 178.69 1889.2 182.141C1886.76 185.917 1883.36 188.049 1879 188.537V185.021ZM1835.3 120.471C1833.38 122.163 1832.42 127.323 1832.42 135.949C1832.42 144.576 1833.38 149.784 1835.3 151.574V155.09C1830.93 154.602 1827.55 152.486 1825.14 148.742C1822.89 145.259 1821.77 141.027 1821.77 136.047C1821.77 131.034 1822.89 126.818 1825.14 123.4C1827.55 119.657 1830.93 117.541 1835.3 117.053V120.471ZM1839.64 151.574C1841.56 149.784 1842.52 144.576 1842.52 135.949C1842.52 127.323 1841.56 122.163 1839.64 120.471V117.053C1844 117.541 1847.41 119.657 1849.85 123.4C1852.06 126.818 1853.17 131.034 1853.17 136.047C1853.17 141.027 1852.06 145.259 1849.85 148.742C1847.41 152.486 1844 154.602 1839.64 155.09V151.574Z" fill="black"/>
</g>
<defs>
<clipPath id="clip0_399_2165">
<rect width="2020" height="321" fill="white"/>
</clipPath>
</defs>
</svg>
