<svg width="2020" height="321" viewBox="0 0 2020 321" fill="none" xmlns="http://www.w3.org/2000/svg">
<g clip-path="url(#clip0_399_2129)">
<mask id="mask0_399_2129" style="mask-type:luminance" maskUnits="userSpaceOnUse" x="0" y="0" width="2020" height="321">
<path d="M2020 0H0V321H2020V0Z" fill="white"/>
</mask>
<g mask="url(#mask0_399_2129)">
<path d="M2020 0H0V321H2020V0Z" fill="#FFD43C"/>
<mask id="mask1_399_2129" style="mask-type:luminance" maskUnits="userSpaceOnUse" x="1739" y="-160" width="390" height="390">
<path d="M2046.16 -159.998L1739 -77.6953L1821.3 229.464L2128.46 147.161L2046.16 -159.998Z" fill="white"/>
</mask>
<g mask="url(#mask1_399_2129)">
<path d="M1892.58 -118.852L1840.16 62.8182L1949.42 93.2682L2028.81 12.2702L1892.58 -118.852ZM1974.88 188.308L1844.95 80.6972L1954.31 111.518L2033.6 30.1492L1974.88 188.308Z" fill="#222222" fill-opacity="0.44"/>
</g>
<mask id="mask2_399_2129" style="mask-type:luminance" maskUnits="userSpaceOnUse" x="-209" y="-907" width="1813" height="1814">
<path d="M1220.7 -906.008L-209 -522.922L174.086 906.774L1603.78 523.688L1220.7 -906.008Z" fill="white"/>
</mask>
<g mask="url(#mask2_399_2129)">
<path d="M505.848 -714.469L261.867 131.123L770.4 272.854L1139.94 -104.156L505.848 -714.469ZM888.934 715.225L284.166 214.343L793.162 357.802L1162.24 -20.9352L888.934 715.225Z" fill="#222222" fill-opacity="0.44"/>
</g>
</g>
<path d="M122.465 117.883C126.664 118.371 128.992 118.615 129.447 118.615H139.848V123.547C134.802 124.035 131.547 126.574 130.082 131.164C129.691 132.466 129.301 133.736 128.91 134.973C127.901 138.228 126.762 140.376 125.492 141.418H122.465V117.883ZM160.453 175.891C160.453 179.536 161.267 181.783 162.895 182.629C163.643 182.987 164.49 183.231 165.434 183.361C166.41 183.492 167.419 183.833 168.461 184.387V188H136.039V184.387C137.081 184.029 138.09 183.736 139.066 183.508C140.043 183.247 140.922 182.922 141.703 182.531C143.363 181.62 144.193 180.139 144.193 178.088V118.615H160.453V175.891ZM175.199 118.615C175.655 118.615 177.982 118.371 182.182 117.883V141.418H179.154C177.885 140.376 176.892 138.732 176.176 136.486C175.492 134.24 174.939 132.482 174.516 131.213C174.092 129.911 173.507 128.723 172.758 127.648C171.098 125.272 168.445 123.905 164.799 123.547V118.615H175.199ZM224.271 188.732C219.356 188.732 215.645 187.609 213.139 185.363V156.359C213.139 152.193 212.96 149.491 212.602 148.254C211.951 145.78 210.616 144.299 208.598 143.811V137.951C221.326 138.407 227.689 144.136 227.689 155.139V177.014C227.689 180.92 228.601 182.873 230.424 182.873C231.921 182.873 232.833 180.887 233.158 176.916L236.674 177.795C235.86 183.296 233.467 186.698 229.496 188C228.064 188.488 226.322 188.732 224.271 188.732ZM208.793 186.389C206.938 187.951 204.496 188.732 201.469 188.732C198.474 188.732 195.984 188.456 193.998 187.902C192.012 187.316 190.303 186.47 188.871 185.363C185.779 182.954 184.232 179.65 184.232 175.451C184.232 170.633 186.479 166.825 190.971 164.025C194.193 162.007 200.134 159.826 208.793 157.482V162.658C202.999 164.937 200.102 168.941 200.102 174.67C200.102 178.413 200.98 180.936 202.738 182.238C203.357 182.661 204.252 182.873 205.424 182.873C206.596 182.873 207.719 182.499 208.793 181.75V186.389ZM198.49 146.936C200.704 147.945 201.811 149.442 201.811 151.428C201.811 153.934 200.362 155.578 197.465 156.359C196.651 156.555 195.837 156.652 195.023 156.652C192.647 156.652 190.84 155.985 189.604 154.65C188.367 153.316 187.748 151.737 187.748 149.914C187.748 148.059 188.106 146.48 188.822 145.178C189.538 143.843 190.596 142.655 191.996 141.613C195.023 139.432 199.109 138.212 204.252 137.951V143.811C201.68 143.973 199.76 145.015 198.49 146.936ZM259.184 173.84L255.326 178.918C254.61 179.895 254.252 180.741 254.252 181.457C254.252 182.173 254.431 182.678 254.789 182.971C255.18 183.264 255.652 183.508 256.205 183.703C256.758 183.866 257.361 184.029 258.012 184.191C258.663 184.354 259.265 184.615 259.818 184.973V188H238.334V184.582C238.757 184.159 239.327 183.85 240.043 183.654C240.759 183.459 241.573 183.182 242.484 182.824C244.958 181.88 247.221 180.122 249.271 177.551L255.863 169.299L259.184 173.84ZM245.951 147.766C244.258 145.454 242.354 143.924 240.238 143.176C239.717 143.013 239.245 142.769 238.822 142.443V138.928H266.361V142.248C265.906 142.541 265.417 142.785 264.896 142.98C264.408 143.143 263.952 143.339 263.529 143.566C262.585 144.022 262.113 144.527 262.113 145.08C262.113 145.633 262.195 146.122 262.357 146.545C262.553 146.968 262.829 147.44 263.188 147.961C263.546 148.579 264.555 150.028 266.215 152.307L286.088 180.09C287.585 182.238 289.424 183.54 291.605 183.996C292.061 184.094 292.468 184.289 292.826 184.582V188H264.799V184.875C265.222 184.517 265.678 184.191 266.166 183.898C266.687 183.573 267.175 183.247 267.631 182.922C268.705 182.108 269.242 181.245 269.242 180.334C269.242 180.236 268.656 179.406 267.484 177.844C266.345 176.281 265.629 175.288 265.336 174.865L245.951 147.766ZM271.488 152.16L274.564 148.254C275.443 147.147 275.883 146.285 275.883 145.666C275.883 145.048 275.704 144.608 275.346 144.348C275.02 144.055 274.63 143.827 274.174 143.664C273.718 143.501 273.23 143.339 272.709 143.176C272.221 143.013 271.83 142.769 271.537 142.443V138.928H291.459V142.443C290.222 142.443 288.643 143.029 286.723 144.201C284.802 145.34 282.898 147.033 281.01 149.279L274.76 156.75L271.488 152.16ZM324.174 182.873C330.717 182.548 335.111 178.934 337.357 172.033L341.85 174.084C339.408 183.036 333.516 187.919 324.174 188.732V182.873ZM322.709 137.951C329.415 138.439 334.444 141.109 337.797 145.959C340.792 150.256 342.289 156.001 342.289 163.195H317.143V158.215H327.25C327.25 154.048 326.924 150.76 326.273 148.352C325.655 145.91 324.467 144.396 322.709 143.811V137.951ZM319.828 188.732C312.764 188.179 307.068 185.428 302.738 180.48C298.702 175.891 296.684 170.243 296.684 163.537C296.684 156.506 298.718 150.598 302.787 145.812C306.824 141.027 312.016 138.407 318.363 137.951V143.811C316.215 144.559 314.701 146.577 313.822 149.865C312.976 153.153 312.553 156.864 312.553 160.998C312.553 165.1 312.65 168.176 312.846 170.227C313.074 172.245 313.464 174.068 314.018 175.695C315.157 179.113 317.094 181.506 319.828 182.873V188.732ZM368.314 143.811C365.32 144.624 363.822 146.04 363.822 148.059C363.822 151.314 366.671 154.032 372.367 156.213C376.859 157.938 380.033 159.289 381.889 160.266C383.777 161.21 385.355 162.251 386.625 163.391C389.457 165.995 390.873 169.234 390.873 173.107C390.873 177.697 389.132 181.376 385.648 184.143C382.263 186.812 377.934 188.342 372.66 188.732V182.873C376.078 182.059 377.787 180.171 377.787 177.209C377.787 174.149 374.988 171.529 369.389 169.348C364.994 167.655 361.869 166.337 360.014 165.393C358.191 164.449 356.661 163.423 355.424 162.316C352.657 159.842 351.273 156.799 351.273 153.186C351.273 149.279 352.934 145.812 356.254 142.785C359.607 139.758 363.627 138.146 368.314 137.951V143.811ZM381.693 144.836C380.977 144.543 377.966 144.201 372.66 143.811V137.951C378.324 138.179 382.751 139.53 385.941 142.004C388.611 144.087 389.945 146.398 389.945 148.938C389.945 152.095 388.741 154.178 386.332 155.188C385.486 155.513 384.314 155.676 382.816 155.676C381.319 155.676 380.082 155.204 379.105 154.26C378.161 153.283 377.689 152.095 377.689 150.695C377.689 148.319 379.024 146.366 381.693 144.836ZM359.916 181.506C360.762 182.255 363.562 182.71 368.314 182.873V188.732C362.911 188.309 358.663 186.877 355.57 184.436C352.966 182.352 351.664 179.976 351.664 177.307C351.664 175.549 352.152 174.117 353.129 173.01C354.105 171.87 355.587 171.301 357.572 171.301C359.558 171.301 361.023 171.74 361.967 172.619C362.943 173.498 363.432 174.637 363.432 176.037C363.432 178.479 362.26 180.301 359.916 181.506Z" fill="black"/>
<path d="M1787.96 121.545C1783.56 121.545 1780.81 123.27 1779.7 126.721C1780.29 127.046 1780.96 127.372 1781.71 127.697C1782.49 127.99 1783.22 128.397 1783.9 128.918C1785.6 130.22 1786.44 132.092 1786.44 134.533C1786.44 138.244 1784.83 140.637 1781.61 141.711C1780.63 142.036 1779.57 142.199 1778.43 142.199C1777.29 142.199 1776.24 142.004 1775.26 141.613C1774.28 141.223 1773.42 140.637 1772.67 139.855C1771.14 138.195 1770.38 136.145 1770.38 133.703C1770.38 131.262 1770.78 129.162 1771.6 127.404C1772.44 125.614 1773.63 124.019 1775.16 122.619C1778.42 119.657 1782.68 117.818 1787.96 117.102V121.545ZM1787.96 189.514C1782.19 189.318 1777.52 187.788 1773.94 184.924C1770.52 182.189 1768.81 178.674 1768.81 174.377C1768.81 171.317 1769.84 168.908 1771.89 167.15C1773.68 165.62 1775.85 164.855 1778.38 164.855C1780.96 164.855 1782.78 165.49 1783.85 166.76C1784.96 167.997 1785.51 169.624 1785.51 171.643C1785.51 173.661 1785.24 175.126 1784.68 176.037C1784.13 176.916 1783.46 177.6 1782.68 178.088C1781.93 178.576 1781.15 178.934 1780.34 179.162C1779.52 179.357 1778.87 179.569 1778.38 179.797C1778.71 181.457 1779.65 182.71 1781.22 183.557C1782.78 184.37 1784.68 184.777 1786.93 184.777H1787.42C1787.61 184.777 1787.79 184.761 1787.96 184.729V189.514ZM1797.96 135.314C1797.96 128.902 1796.08 124.751 1792.3 122.863V117.102C1798.62 117.102 1803.86 118.729 1808.02 121.984C1812.26 125.305 1814.37 129.504 1814.37 134.582C1814.37 139.465 1812.5 143.322 1808.76 146.154C1806.09 148.173 1802.33 149.686 1797.48 150.695L1797.38 150.891C1803.11 151.639 1807.5 153.202 1810.56 155.578C1814.47 158.508 1816.42 162.821 1816.42 168.518C1816.42 174.279 1814.18 179.081 1809.68 182.922C1805.22 186.796 1799.43 188.96 1792.3 189.416V183.654C1796.83 181.571 1799.09 176.818 1799.09 169.396C1799.09 161.031 1796.47 156.066 1791.23 154.504C1789.57 153.983 1787.68 153.723 1785.56 153.723H1782.54C1781.69 153.723 1781.04 153.462 1780.58 152.941C1780.16 152.421 1779.95 151.851 1779.95 151.232C1779.95 150.614 1780.16 150.028 1780.58 149.475C1781.04 148.889 1781.69 148.596 1782.54 148.596H1785.76C1793.9 148.596 1797.96 144.169 1797.96 135.314ZM1833.17 189.514H1826.92L1874.48 117.102H1880.73L1833.17 189.514ZM1871.4 153.918C1869.48 155.611 1868.52 160.77 1868.52 169.396C1868.52 178.023 1869.48 183.231 1871.4 185.021V188.537C1867.04 188.049 1863.65 185.917 1861.25 182.141C1859 178.69 1857.88 174.475 1857.88 169.494C1857.88 164.481 1859 160.266 1861.25 156.848C1863.65 153.104 1867.04 150.988 1871.4 150.5V153.918ZM1875.75 185.021C1877.67 183.231 1878.63 178.023 1878.63 169.396C1878.63 160.77 1877.67 155.611 1875.75 153.918V150.5C1880.11 150.988 1883.51 153.104 1885.95 156.848C1888.17 160.266 1889.27 164.481 1889.27 169.494C1889.27 174.475 1888.17 178.69 1885.95 182.141C1883.51 185.917 1880.11 188.049 1875.75 188.537V185.021ZM1832.05 120.471C1830.13 122.163 1829.17 127.323 1829.17 135.949C1829.17 144.576 1830.13 149.784 1832.05 151.574V155.09C1827.68 154.602 1824.3 152.486 1821.89 148.742C1819.64 145.259 1818.52 141.027 1818.52 136.047C1818.52 131.034 1819.64 126.818 1821.89 123.4C1824.3 119.657 1827.68 117.541 1832.05 117.053V120.471ZM1836.39 151.574C1838.31 149.784 1839.27 144.576 1839.27 135.949C1839.27 127.323 1838.31 122.163 1836.39 120.471V117.053C1840.75 117.541 1844.16 119.657 1846.6 123.4C1848.81 126.818 1849.92 131.034 1849.92 136.047C1849.92 141.027 1848.81 145.259 1846.6 148.742C1844.16 152.486 1840.75 154.602 1836.39 155.09V151.574Z" fill="black"/>
</g>
<defs>
<clipPath id="clip0_399_2129">
<rect width="2020" height="321" fill="white"/>
</clipPath>
</defs>
</svg>
