<svg width="2020" height="321" viewBox="0 0 2020 321" fill="none" xmlns="http://www.w3.org/2000/svg">
<g clip-path="url(#clip0_399_2201)">
<mask id="mask0_399_2201" style="mask-type:luminance" maskUnits="userSpaceOnUse" x="0" y="0" width="2020" height="321">
<path d="M2020 0H0V321H2020V0Z" fill="white"/>
</mask>
<g mask="url(#mask0_399_2201)">
<path d="M2020 0H0V321H2020V0Z" fill="#FFD43C"/>
<mask id="mask1_399_2201" style="mask-type:luminance" maskUnits="userSpaceOnUse" x="1408" y="-35" width="390" height="390">
<path d="M1715.16 -34.725L1408 47.5781L1490.3 354.738L1797.46 272.435L1715.16 -34.725Z" fill="white"/>
</mask>
<g mask="url(#mask1_399_2201)">
<path d="M1561.58 6.42188L1509.16 188.092L1618.42 218.542L1697.81 137.544L1561.58 6.42188ZM1643.88 313.582L1513.95 205.971L1623.31 236.792L1702.6 155.423L1643.88 313.582Z" fill="#222222" fill-opacity="0.44"/>
</g>
<mask id="mask2_399_2201" style="mask-type:luminance" maskUnits="userSpaceOnUse" x="-758" y="-907" width="1813" height="1814">
<path d="M671.696 -906.008L-758 -522.922L-374.914 906.774L1054.78 523.688L671.696 -906.008Z" fill="white"/>
</mask>
<g mask="url(#mask2_399_2201)">
<path d="M-43.1519 -714.469L-287.133 131.123L221.4 272.854L590.938 -104.156L-43.1519 -714.469ZM339.934 715.225L-264.834 214.343L244.162 357.802L613.237 -20.9352L339.934 715.225Z" fill="#222222" fill-opacity="0.44"/>
</g>
</g>
<path d="M122.465 117.883C126.664 118.371 128.992 118.615 129.447 118.615H139.848V123.547C134.802 124.035 131.547 126.574 130.082 131.164C129.691 132.466 129.301 133.736 128.91 134.973C127.901 138.228 126.762 140.376 125.492 141.418H122.465V117.883ZM160.453 175.891C160.453 179.536 161.267 181.783 162.895 182.629C163.643 182.987 164.49 183.231 165.434 183.361C166.41 183.492 167.419 183.833 168.461 184.387V188H136.039V184.387C137.081 184.029 138.09 183.736 139.066 183.508C140.043 183.247 140.922 182.922 141.703 182.531C143.363 181.62 144.193 180.139 144.193 178.088V118.615H160.453V175.891ZM175.199 118.615C175.655 118.615 177.982 118.371 182.182 117.883V141.418H179.154C177.885 140.376 176.892 138.732 176.176 136.486C175.492 134.24 174.939 132.482 174.516 131.213C174.092 129.911 173.507 128.723 172.758 127.648C171.098 125.272 168.445 123.905 164.799 123.547V118.615H175.199ZM211.479 182.873C218.021 182.548 222.416 178.934 224.662 172.033L229.154 174.084C226.713 183.036 220.821 187.919 211.479 188.732V182.873ZM210.014 137.951C216.719 138.439 221.749 141.109 225.102 145.959C228.096 150.256 229.594 156.001 229.594 163.195H204.447V158.215H214.555C214.555 154.048 214.229 150.76 213.578 148.352C212.96 145.91 211.771 144.396 210.014 143.811V137.951ZM207.133 188.732C200.069 188.179 194.372 185.428 190.043 180.48C186.007 175.891 183.988 170.243 183.988 163.537C183.988 156.506 186.023 150.598 190.092 145.812C194.128 141.027 199.32 138.407 205.668 137.951V143.811C203.52 144.559 202.006 146.577 201.127 149.865C200.281 153.153 199.857 156.864 199.857 160.998C199.857 165.1 199.955 168.176 200.15 170.227C200.378 172.245 200.769 174.068 201.322 175.695C202.462 179.113 204.398 181.506 207.133 182.873V188.732ZM277.494 188.732C272.579 188.732 268.868 187.609 266.361 185.363V156.359C266.361 152.193 266.182 149.491 265.824 148.254C265.173 145.78 263.839 144.299 261.82 143.811V137.951C274.548 138.407 280.912 144.136 280.912 155.139V177.014C280.912 180.92 281.824 182.873 283.646 182.873C285.144 182.873 286.055 180.887 286.381 176.916L289.896 177.795C289.083 183.296 286.69 186.698 282.719 188C281.286 188.488 279.545 188.732 277.494 188.732ZM262.016 186.389C260.16 187.951 257.719 188.732 254.691 188.732C251.697 188.732 249.206 188.456 247.221 187.902C245.235 187.316 243.526 186.47 242.094 185.363C239.001 182.954 237.455 179.65 237.455 175.451C237.455 170.633 239.701 166.825 244.193 164.025C247.416 162.007 253.357 159.826 262.016 157.482V162.658C256.221 164.937 253.324 168.941 253.324 174.67C253.324 178.413 254.203 180.936 255.961 182.238C256.579 182.661 257.475 182.873 258.646 182.873C259.818 182.873 260.941 182.499 262.016 181.75V186.389ZM251.713 146.936C253.926 147.945 255.033 149.442 255.033 151.428C255.033 153.934 253.585 155.578 250.688 156.359C249.874 156.555 249.06 156.652 248.246 156.652C245.87 156.652 244.063 155.985 242.826 154.65C241.589 153.316 240.971 151.737 240.971 149.914C240.971 148.059 241.329 146.48 242.045 145.178C242.761 143.843 243.819 142.655 245.219 141.613C248.246 139.432 252.331 138.212 257.475 137.951V143.811C254.903 143.973 252.982 145.015 251.713 146.936ZM317.289 140.588C319.568 138.83 322.351 137.951 325.639 137.951C330.456 137.951 333.972 139.042 336.186 141.223C338.399 143.371 339.506 146.757 339.506 151.379V179.797C339.506 181.49 340.092 182.629 341.264 183.215C341.785 183.475 342.338 183.719 342.924 183.947C343.542 184.143 344.128 184.452 344.682 184.875V188H324.955V153.088C324.955 149.865 324.743 147.717 324.32 146.643C323.507 144.755 322.172 143.811 320.316 143.811C319.21 143.811 318.201 144.152 317.289 144.836V140.588ZM343.9 139.953C346.244 138.618 348.767 137.951 351.469 137.951C354.203 137.951 356.433 138.26 358.158 138.879C359.883 139.497 361.316 140.474 362.455 141.809C364.766 144.51 365.922 148.693 365.922 154.357V177.551C365.922 179.895 366.166 181.392 366.654 182.043C367.175 182.661 367.647 183.052 368.07 183.215C368.493 183.345 368.949 183.459 369.438 183.557C370.609 183.817 371.537 184.257 372.221 184.875V188H351.42V153.088C351.42 149.768 351.208 147.603 350.785 146.594C350.069 144.738 348.751 143.811 346.83 143.811C345.788 143.811 344.812 144.12 343.9 144.738V139.953ZM298.393 149.621C298.393 147.18 298.132 145.65 297.611 145.031C297.09 144.413 296.618 144.055 296.195 143.957C295.772 143.827 295.333 143.729 294.877 143.664C293.64 143.436 292.761 142.997 292.24 142.346V138.928H312.943V179.211C312.943 180.969 313.741 182.238 315.336 183.02C316.052 183.345 316.85 183.638 317.729 183.898C318.64 184.159 319.551 184.484 320.463 184.875V188H291.557V184.875C292.273 184.452 293.021 184.143 293.803 183.947C294.617 183.719 295.365 183.459 296.049 183.166C297.611 182.482 298.393 181.164 298.393 179.211V149.621ZM436.283 189.465L435.014 189.514C426.452 189.514 419.551 187.837 414.311 184.484C409.037 181.066 406.4 176.656 406.4 171.252C406.4 165.295 408.956 160.282 414.066 156.213C415.661 154.943 417.436 153.853 419.389 152.941L423.148 158.801C422.595 160.721 422.318 163.911 422.318 168.371C422.318 171.952 423.669 175.174 426.371 178.039C429.138 181.001 432.442 182.743 436.283 183.264V189.465ZM438.773 143.078C443.559 140.181 445.951 135.982 445.951 130.48C445.951 128.69 445.447 127.128 444.438 125.793C443.428 124.458 441.833 123.645 439.652 123.352V117.102C444.275 117.427 448.067 118.859 451.029 121.398C454.089 124.003 455.619 127.274 455.619 131.213C455.619 136.877 452.706 141.353 446.879 144.641C445.186 145.617 443.445 146.545 441.654 147.424L438.773 143.078ZM477.787 174.621C476.745 179.341 475.118 182.857 472.904 185.168C470.723 187.447 467.517 188.586 463.285 188.586C459.086 188.586 455.147 186.779 451.469 183.166C448.083 186.258 444.145 188.228 439.652 189.074V183.264C442.615 182.938 445.17 181.75 447.318 179.699C446.439 178.723 445.333 177.567 443.998 176.232C442.663 174.898 441.215 173.417 439.652 171.789C438.09 170.161 436.446 168.42 434.721 166.564C433.028 164.676 431.352 162.723 429.691 160.705C428.064 158.654 426.501 156.555 425.004 154.406C423.539 152.225 422.253 150.044 421.146 147.863C418.705 143.013 417.484 138.96 417.484 135.705C417.484 132.45 417.924 129.764 418.803 127.648C419.682 125.533 420.935 123.71 422.562 122.18C425.915 119.12 430.489 117.427 436.283 117.102V123.352C434.232 123.677 432.702 124.442 431.693 125.646C430.684 126.851 430.18 128.397 430.18 130.285C430.18 133.996 432.068 138.618 435.844 144.152C442.484 153.918 449.418 162.235 456.645 169.104C457.882 165.816 458.5 163.081 458.5 160.9C458.5 158.687 458.207 157.222 457.621 156.506C457.035 155.757 456.319 155.22 455.473 154.895C454.659 154.569 453.796 154.341 452.885 154.211C451.973 154.048 451.208 153.771 450.59 153.381V149.816H474.369V153.283C473.62 153.609 472.872 153.869 472.123 154.064C471.374 154.26 470.674 154.536 470.023 154.895C468.526 155.676 467.419 157.043 466.703 158.996C464.424 165.311 462.292 170.113 460.307 173.4C463.367 176.688 465.368 178.527 466.312 178.918C467.289 179.309 468.103 179.504 468.754 179.504C469.438 179.504 470.04 179.406 470.561 179.211C471.114 178.983 471.602 178.609 472.025 178.088C472.774 177.176 473.474 175.484 474.125 173.01L477.787 174.621ZM534.623 188H511.43V184.387C512.309 184.029 513.155 183.768 513.969 183.605C514.815 183.41 515.564 183.15 516.215 182.824C517.68 182.108 518.412 180.741 518.412 178.723V127.99C518.412 125.939 517.68 124.556 516.215 123.84C515.564 123.514 514.815 123.27 513.969 123.107C513.155 122.912 512.309 122.635 511.43 122.277V118.615H534.623V188ZM556.205 130.529C554.773 128.088 552.934 126.281 550.688 125.109C548.441 123.905 546.146 123.303 543.803 123.303C541.492 123.303 539.88 123.368 538.969 123.498V118.615H543.754C555.31 118.615 564.164 122.196 570.316 129.357C575.785 135.738 578.52 143.713 578.52 153.283C578.52 163.212 575.688 171.333 570.023 177.648C563.839 184.549 555.261 188 544.291 188H538.969V183.117C540.01 183.247 541.638 183.312 543.852 183.312C546.065 183.312 548.295 182.824 550.541 181.848C552.82 180.839 554.691 179.162 556.156 176.818C558.988 172.294 560.404 164.449 560.404 153.283C560.404 142.899 559.005 135.314 556.205 130.529ZM612.846 182.873C619.389 182.548 623.783 178.934 626.029 172.033L630.521 174.084C628.08 183.036 622.188 187.919 612.846 188.732V182.873ZM611.381 137.951C618.087 138.439 623.116 141.109 626.469 145.959C629.464 150.256 630.961 156.001 630.961 163.195H605.814V158.215H615.922C615.922 154.048 615.596 150.76 614.945 148.352C614.327 145.91 613.139 144.396 611.381 143.811V137.951ZM608.5 188.732C601.436 188.179 595.74 185.428 591.41 180.48C587.374 175.891 585.355 170.243 585.355 163.537C585.355 156.506 587.39 150.598 591.459 145.812C595.495 141.027 600.688 138.407 607.035 137.951V143.811C604.887 144.559 603.373 146.577 602.494 149.865C601.648 153.153 601.225 156.864 601.225 160.998C601.225 165.1 601.322 168.176 601.518 170.227C601.745 172.245 602.136 174.068 602.689 175.695C603.829 179.113 605.766 181.506 608.5 182.873V188.732ZM665.58 166.906L671.342 150.402C672.025 148.417 672.367 147.066 672.367 146.35C672.367 145.633 672.172 145.096 671.781 144.738C671.423 144.38 670.967 144.087 670.414 143.859C669.893 143.632 669.307 143.436 668.656 143.273C668.038 143.078 667.468 142.834 666.947 142.541V138.928H684.428V142.248C683.972 142.541 683.451 142.801 682.865 143.029C682.279 143.257 681.71 143.518 681.156 143.811C679.822 144.527 678.943 145.471 678.52 146.643L668.461 174.475L665.58 166.906ZM663.432 188H654.789L639.164 147.961C638.253 145.65 636.69 144.152 634.477 143.469C633.923 143.273 633.386 142.997 632.865 142.639V138.928H659.623V142.541C659.102 142.899 658.5 143.176 657.816 143.371C657.165 143.566 656.547 143.778 655.961 144.006C654.496 144.559 653.764 145.373 653.764 146.447C653.764 147.359 655.408 152.176 658.695 160.9C661.983 169.624 664.473 176.298 666.166 180.92L663.432 188ZM712.943 182.873C719.486 182.548 723.881 178.934 726.127 172.033L730.619 174.084C728.178 183.036 722.286 187.919 712.943 188.732V182.873ZM711.479 137.951C718.184 138.439 723.214 141.109 726.566 145.959C729.561 150.256 731.059 156.001 731.059 163.195H705.912V158.215H716.02C716.02 154.048 715.694 150.76 715.043 148.352C714.424 145.91 713.236 144.396 711.479 143.811V137.951ZM708.598 188.732C701.534 188.179 695.837 185.428 691.508 180.48C687.471 175.891 685.453 170.243 685.453 163.537C685.453 156.506 687.488 150.598 691.557 145.812C695.593 141.027 700.785 138.407 707.133 137.951V143.811C704.984 144.559 703.471 146.577 702.592 149.865C701.745 153.153 701.322 156.864 701.322 160.998C701.322 165.1 701.42 168.176 701.615 170.227C701.843 172.245 702.234 174.068 702.787 175.695C703.926 179.113 705.863 181.506 708.598 182.873V188.732ZM758.5 179.797C758.5 181.49 759.281 182.645 760.844 183.264C761.495 183.524 762.195 183.752 762.943 183.947C763.692 184.143 764.392 184.452 765.043 184.875V188H737.553V184.875C738.171 184.452 738.855 184.143 739.604 183.947C740.352 183.752 741.052 183.524 741.703 183.264C743.233 182.645 743.998 181.49 743.998 179.797V125.451C743.998 123.726 743.233 122.538 741.703 121.887C741.052 121.626 740.352 121.415 739.604 121.252C738.855 121.057 738.171 120.747 737.553 120.324V116.955H758.5V179.797ZM792.387 143.811C788.448 145.243 786.479 151.77 786.479 163.391C786.479 169.12 786.918 173.596 787.797 176.818C788.708 180.008 790.238 182.027 792.387 182.873V188.732C785.909 188.212 780.57 185.607 776.371 180.92C772.139 176.2 770.023 170.406 770.023 163.537C770.023 156.799 772.139 150.988 776.371 146.105C780.701 141.19 786.039 138.472 792.387 137.951V143.811ZM802.689 163.391C802.689 151.77 800.704 145.243 796.732 143.811V137.951C803.178 138.472 808.516 141.19 812.748 146.105C816.98 150.988 819.096 156.799 819.096 163.537C819.096 170.406 816.98 176.2 812.748 180.92C808.549 185.607 803.21 188.212 796.732 188.732V182.873C798.881 182.059 800.411 180.057 801.322 176.867C802.234 173.645 802.689 169.152 802.689 163.391ZM843.803 198.645C843.803 200.402 844.6 201.672 846.195 202.453C846.911 202.779 847.709 203.072 848.588 203.332C849.499 203.592 850.411 203.918 851.322 204.309V207.434H822.416V204.309C823.132 203.885 823.881 203.56 824.662 203.332C825.476 203.137 826.225 202.893 826.908 202.6C828.471 201.916 829.252 200.598 829.252 198.645V147.424C829.252 145.699 828.487 144.527 826.957 143.908C826.306 143.648 825.606 143.436 824.857 143.273C824.141 143.078 823.474 142.769 822.855 142.346V138.928H843.021L843.803 145.129V198.645ZM851.029 143.811C850.02 143.811 849.06 144.038 848.148 144.494V139.221C849.841 138.374 852.055 137.951 854.789 137.951C857.523 137.951 860.144 138.651 862.65 140.051C865.157 141.418 867.322 143.273 869.145 145.617C873.018 150.663 874.955 156.734 874.955 163.83C874.955 171.057 872.937 177.03 868.9 181.75C864.896 186.405 859.9 188.732 853.91 188.732C851.729 188.732 849.809 188.407 848.148 187.756V182.336C848.865 182.694 849.678 182.873 850.59 182.873C856.059 182.873 858.793 176.363 858.793 163.342C858.793 150.321 856.205 143.811 851.029 143.811ZM905.277 140.588C907.556 138.83 910.339 137.951 913.627 137.951C918.445 137.951 921.96 139.042 924.174 141.223C926.387 143.371 927.494 146.757 927.494 151.379V179.797C927.494 181.49 928.08 182.629 929.252 183.215C929.773 183.475 930.326 183.719 930.912 183.947C931.531 184.143 932.117 184.452 932.67 184.875V188H912.943V153.088C912.943 149.865 912.732 147.717 912.309 146.643C911.495 144.755 910.16 143.811 908.305 143.811C907.198 143.811 906.189 144.152 905.277 144.836V140.588ZM931.889 139.953C934.232 138.618 936.755 137.951 939.457 137.951C942.191 137.951 944.421 138.26 946.146 138.879C947.872 139.497 949.304 140.474 950.443 141.809C952.755 144.51 953.91 148.693 953.91 154.357V177.551C953.91 179.895 954.154 181.392 954.643 182.043C955.163 182.661 955.635 183.052 956.059 183.215C956.482 183.345 956.938 183.459 957.426 183.557C958.598 183.817 959.525 184.257 960.209 184.875V188H939.408V153.088C939.408 149.768 939.197 147.603 938.773 146.594C938.057 144.738 936.739 143.811 934.818 143.811C933.777 143.811 932.8 144.12 931.889 144.738V139.953ZM886.381 149.621C886.381 147.18 886.12 145.65 885.6 145.031C885.079 144.413 884.607 144.055 884.184 143.957C883.76 143.827 883.321 143.729 882.865 143.664C881.628 143.436 880.749 142.997 880.229 142.346V138.928H900.932V179.211C900.932 180.969 901.729 182.238 903.324 183.02C904.04 183.345 904.838 183.638 905.717 183.898C906.628 184.159 907.54 184.484 908.451 184.875V188H879.545V184.875C880.261 184.452 881.01 184.143 881.791 183.947C882.605 183.719 883.354 183.459 884.037 183.166C885.6 182.482 886.381 181.164 886.381 179.211V149.621ZM992.436 182.873C998.979 182.548 1003.37 178.934 1005.62 172.033L1010.11 174.084C1007.67 183.036 1001.78 187.919 992.436 188.732V182.873ZM990.971 137.951C997.676 138.439 1002.71 141.109 1006.06 145.959C1009.05 150.256 1010.55 156.001 1010.55 163.195H985.404V158.215H995.512C995.512 154.048 995.186 150.76 994.535 148.352C993.917 145.91 992.729 144.396 990.971 143.811V137.951ZM988.09 188.732C981.026 188.179 975.329 185.428 971 180.48C966.964 175.891 964.945 170.243 964.945 163.537C964.945 156.506 966.98 150.598 971.049 145.812C975.085 141.027 980.277 138.407 986.625 137.951V143.811C984.477 144.559 982.963 146.577 982.084 149.865C981.238 153.153 980.814 156.864 980.814 160.998C980.814 165.1 980.912 168.176 981.107 170.227C981.335 172.245 981.726 174.068 982.279 175.695C983.419 179.113 985.355 181.506 988.09 182.873V188.732ZM1042.24 141.076C1044.81 138.993 1047.46 137.951 1050.2 137.951C1052.93 137.951 1055.16 138.26 1056.89 138.879C1058.65 139.497 1060.13 140.409 1061.33 141.613C1063.9 144.185 1065.19 147.782 1065.19 152.404V177.746C1065.19 181.001 1065.92 182.84 1067.39 183.264C1067.84 183.394 1068.3 183.508 1068.75 183.605C1070.02 183.866 1070.95 184.289 1071.54 184.875V188H1048.34V184.582C1048.34 183.866 1048.6 183.28 1049.12 182.824C1049.68 182.368 1050.07 181.978 1050.3 181.652C1050.56 181.294 1050.69 180.741 1050.69 179.992V152.893C1050.69 149.54 1050.46 147.391 1050 146.447C1049.22 144.689 1048 143.811 1046.34 143.811C1044.68 143.811 1043.31 144.217 1042.24 145.031V141.076ZM1037.89 177.746C1037.89 180.969 1038.58 182.808 1039.95 183.264C1040.37 183.394 1040.81 183.508 1041.26 183.605C1042.47 183.866 1043.36 184.289 1043.95 184.875V188H1017.04V184.875C1017.6 184.452 1018.23 184.143 1018.95 183.947C1019.7 183.752 1020.4 183.524 1021.05 183.264C1022.61 182.645 1023.39 181.49 1023.39 179.797V149.621C1023.39 147.31 1022.86 145.633 1021.78 144.592C1020.93 143.745 1019.36 142.997 1017.04 142.346V138.928H1037.89V177.746ZM1095.95 122.326V188.732H1095.56C1090.78 188.732 1087.21 187.821 1084.87 185.998C1082.56 184.175 1081.4 181.213 1081.4 177.111V144.299H1074.91V140.393C1075.39 139.872 1076.01 139.481 1076.76 139.221C1077.54 138.96 1078.32 138.684 1079.11 138.391C1081.03 137.674 1082.25 136.503 1082.77 134.875C1084.49 130.122 1085.84 127.079 1086.82 125.744C1087.8 124.377 1088.66 123.27 1089.41 122.424L1095.95 122.326ZM1100.3 182.873C1102.93 182.873 1104.79 182.027 1105.86 180.334C1106.32 179.585 1106.68 178.739 1106.94 177.795C1107.2 176.818 1107.49 175.842 1107.82 174.865L1111.77 176.428C1110.96 180.204 1109.95 182.808 1108.74 184.24C1107.54 185.64 1106.29 186.665 1104.98 187.316C1103.71 187.967 1102.15 188.439 1100.3 188.732V182.873ZM1100.3 138.928H1109.09V144.299H1100.3V138.928Z" fill="black"/>
<path d="M1789.63 188.977C1784.55 188.586 1780.47 186.958 1777.38 184.094C1774.35 181.327 1772.83 177.909 1772.83 173.84C1772.83 169.543 1774.58 166.678 1778.06 165.246C1779.13 164.79 1780.3 164.562 1781.57 164.562C1782.84 164.562 1783.95 164.758 1784.89 165.148C1785.87 165.539 1786.68 166.06 1787.34 166.711C1788.64 168.013 1789.29 169.722 1789.29 171.838C1789.29 173.824 1788.18 175.37 1785.97 176.477C1784.57 177.16 1783.66 177.73 1783.23 178.186C1782.84 178.609 1782.65 179.13 1782.65 179.748C1782.65 180.367 1782.83 180.985 1783.19 181.604C1783.54 182.189 1784.03 182.694 1784.65 183.117C1785.95 183.964 1787.61 184.419 1789.63 184.484V188.977ZM1805.01 132.482C1797.56 132.482 1789.76 132.32 1781.62 131.994V154.699C1781.62 156.945 1780.66 158.068 1778.74 158.068C1776.82 158.068 1775.86 156.783 1775.86 154.211L1776.11 150.402L1776.15 118.42C1783.51 119.201 1790.75 119.592 1797.88 119.592C1805.04 119.592 1809.52 118.697 1811.31 116.906C1812.29 116.906 1813.12 117.069 1813.8 117.395C1813.8 125.142 1810.87 130.171 1805.01 132.482ZM1799.25 153.234C1798.27 151.704 1797.09 150.581 1795.69 149.865C1794.32 149.149 1792.74 148.791 1790.95 148.791C1789.16 148.791 1787.5 149.247 1785.97 150.158V144.836C1788.7 143.404 1791.68 142.688 1794.9 142.688C1798.13 142.688 1801.22 143.241 1804.18 144.348C1807.14 145.454 1809.73 147.001 1811.95 148.986C1816.67 153.251 1819.03 158.719 1819.03 165.393C1819.03 172.163 1816.7 177.681 1812.04 181.945C1807.52 186.177 1801.5 188.521 1793.98 188.977V183.752C1796.71 182.775 1798.78 180.855 1800.18 177.99C1801.61 175.093 1802.33 171.789 1802.33 168.078C1802.33 164.367 1802.05 161.34 1801.5 158.996C1800.98 156.652 1800.23 154.732 1799.25 153.234ZM1842.17 189.514H1835.92L1883.48 117.102H1889.73L1842.17 189.514ZM1880.4 153.918C1878.48 155.611 1877.52 160.77 1877.52 169.396C1877.52 178.023 1878.48 183.231 1880.4 185.021V188.537C1876.04 188.049 1872.65 185.917 1870.25 182.141C1868 178.69 1866.88 174.475 1866.88 169.494C1866.88 164.481 1868 160.266 1870.25 156.848C1872.65 153.104 1876.04 150.988 1880.4 150.5V153.918ZM1884.75 185.021C1886.67 183.231 1887.63 178.023 1887.63 169.396C1887.63 160.77 1886.67 155.611 1884.75 153.918V150.5C1889.11 150.988 1892.51 153.104 1894.95 156.848C1897.17 160.266 1898.27 164.481 1898.27 169.494C1898.27 174.475 1897.17 178.69 1894.95 182.141C1892.51 185.917 1889.11 188.049 1884.75 188.537V185.021ZM1841.05 120.471C1839.13 122.163 1838.17 127.323 1838.17 135.949C1838.17 144.576 1839.13 149.784 1841.05 151.574V155.09C1836.68 154.602 1833.3 152.486 1830.89 148.742C1828.64 145.259 1827.52 141.027 1827.52 136.047C1827.52 131.034 1828.64 126.818 1830.89 123.4C1833.3 119.657 1836.68 117.541 1841.05 117.053V120.471ZM1845.39 151.574C1847.31 149.784 1848.27 144.576 1848.27 135.949C1848.27 127.323 1847.31 122.163 1845.39 120.471V117.053C1849.75 117.541 1853.16 119.657 1855.6 123.4C1857.81 126.818 1858.92 131.034 1858.92 136.047C1858.92 141.027 1857.81 145.259 1855.6 148.742C1853.16 152.486 1849.75 154.602 1845.39 155.09V151.574Z" fill="black"/>
</g>
<defs>
<clipPath id="clip0_399_2201">
<rect width="2020" height="321" fill="white"/>
</clipPath>
</defs>
</svg>
